<?xml version="1.0" encoding="UTF-8" standalone="no"?>
<!-- Created with Inkscape (http://www.inkscape.org/) -->
<svg
   xmlns:dc="http://purl.org/dc/elements/1.1/"
   xmlns:cc="http://creativecommons.org/ns#"
   xmlns:rdf="http://www.w3.org/1999/02/22-rdf-syntax-ns#"
   xmlns:svg="http://www.w3.org/2000/svg"
   xmlns="http://www.w3.org/2000/svg"
   xmlns:xlink="http://www.w3.org/1999/xlink"
   xmlns:sodipodi="http://sodipodi.sourceforge.net/DTD/sodipodi-0.dtd"
   xmlns:inkscape="http://www.inkscape.org/namespaces/inkscape"
   width="744.09448819"
   height="1052.3622047"
   id="svg5949"
   sodipodi:version="0.32"
   inkscape:version="0.46"
   sodipodi:docname="ca40atomlevels.svg"
   inkscape:output_extension="org.inkscape.output.svg.inkscape">
  <defs
     id="defs5951">
    <linearGradient
       id="linearGradient3161">
      <stop
         id="stop3163"
         offset="0"
         style="stop-color:#000000;stop-opacity:1;" />
      <stop
         style="stop-color:#b4b4b4;stop-opacity:1;"
         offset="0.5"
         id="stop6785" />
      <stop
         style="stop-color:#ffffff;stop-opacity:1;"
         offset="1"
         id="stop6763" />
    </linearGradient>
    <linearGradient
       gradientTransform="translate(54.279913,-76.507927)"
       gradientUnits="userSpaceOnUse"
       y2="126.6479"
       x2="95"
       y1="140.93361"
       x1="95"
       id="linearGradient3171"
       xlink:href="#linearGradient3161"
       inkscape:collect="always" />
    <marker
       style="overflow:visible;"
       id="Arrow2Lendw"
       refX="0.0"
       refY="0.0"
       orient="auto"
       inkscape:stockid="Arrow2Lendw">
      <path
         transform="scale(1.1) rotate(180) translate(1,0)"
         d="M 8.7185878,4.0337352 L -2.2072895,0.016013256 L 8.7185884,-4.0017078 C 6.9730900,-1.6296469 6.9831476,1.6157441 8.7185878,4.0337352 z "
         style="stroke-linejoin:round;font-size:12.0;fill-rule:evenodd;stroke:#0000f2;stroke-width:0.62500000;fill:#0000f2"
         id="path5325" />
    </marker>
    <marker
       style="overflow:visible"
       id="Arrow2LstartDm"
       refX="0.0"
       refY="0.0"
       orient="auto"
       inkscape:stockid="Arrow2LstartDm">
      <path
         transform="scale(1.1) translate(1,0)"
         d="M 8.7185878,4.0337352 L -2.2072895,0.016013256 L 8.7185884,-4.0017078 C 6.9730900,-1.6296469 6.9831476,1.6157441 8.7185878,4.0337352 z "
         style="stroke-linejoin:round;font-size:12.0;fill-rule:evenodd;stroke:#0000f2;stroke-width:0.62500000;fill:#0000f2"
         id="path5322" />
    </marker>
    <marker
       style="overflow:visible;"
       id="Arrow2Lend7h"
       refX="0.0"
       refY="0.0"
       orient="auto"
       inkscape:stockid="Arrow2Lend7h">
      <path
         transform="scale(1.1) rotate(180) translate(1,0)"
         d="M 8.7185878,4.0337352 L -2.2072895,0.016013256 L 8.7185884,-4.0017078 C 6.9730900,-1.6296469 6.9831476,1.6157441 8.7185878,4.0337352 z "
         style="stroke-linejoin:round;font-size:12.0;fill-rule:evenodd;stroke:#0000d1;stroke-width:0.62500000;fill:#0000d1"
         id="path5591" />
    </marker>
    <marker
       style="overflow:visible"
       id="Arrow2Lstart3R"
       refX="0.0"
       refY="0.0"
       orient="auto"
       inkscape:stockid="Arrow2Lstart3R">
      <path
         transform="scale(1.1) translate(1,0)"
         d="M 8.7185878,4.0337352 L -2.2072895,0.016013256 L 8.7185884,-4.0017078 C 6.9730900,-1.6296469 6.9831476,1.6157441 8.7185878,4.0337352 z "
         style="stroke-linejoin:round;font-size:12.0;fill-rule:evenodd;stroke:#0000d1;stroke-width:0.62500000;fill:#0000d1"
         id="path5588" />
    </marker>
    <inkscape:perspective
       sodipodi:type="inkscape:persp3d"
       inkscape:vp_x="0 : 526.18109 : 1"
       inkscape:vp_y="0 : 1000 : 0"
       inkscape:vp_z="744.09448 : 526.18109 : 1"
       inkscape:persp3d-origin="372.04724 : 350.78739 : 1"
       id="perspective5957" />
  </defs>
  <sodipodi:namedview
     id="base"
     pagecolor="#ffffff"
     bordercolor="#666666"
     borderopacity="1.0"
     gridtolerance="10000"
     guidetolerance="10"
     objecttolerance="10"
     inkscape:pageopacity="0.0"
     inkscape:pageshadow="2"
     inkscape:zoom="2.8"
     inkscape:cx="100.7352"
     inkscape:cy="978.20969"
     inkscape:document-units="px"
     inkscape:current-layer="layer1"
     showgrid="false"
     inkscape:window-width="1280"
     inkscape:window-height="744"
     inkscape:window-x="-4"
     inkscape:window-y="-4" />
  <metadata
     id="metadata5954">
    <rdf:RDF>
      <cc:Work
         rdf:about="">
        <dc:format>image/svg+xml</dc:format>
        <dc:type
           rdf:resource="http://purl.org/dc/dcmitype/StillImage" />
      </cc:Work>
    </rdf:RDF>
  </metadata>
  <g
     inkscape:label="Layer 1"
     inkscape:groupmode="layer"
     id="layer1">
    <path
       sodipodi:nodetypes="cc"
       id="path2385"
       d="M 102.13705,184.42569 L 202.85133,184.42568"
       style="fill:none;fill-rule:evenodd;stroke:#000000;stroke-width:2.66700006;stroke-linecap:butt;stroke-linejoin:miter;stroke-miterlimit:4;stroke-dasharray:none;stroke-opacity:1" />
    <path
       style="fill:url(#linearGradient3171);fill-opacity:1"
       d="M 102.13705,45.854271 L 204.27991,45.854271 L 204.27991,64.425699 L 102.13705,64.425699 L 102.13705,45.854271 z"
       id="rect2389" />
    <path
       style="fill:none;fill-rule:evenodd;stroke:#000000;stroke-width:2.66700006;stroke-linecap:butt;stroke-linejoin:miter;stroke-miterlimit:4;stroke-dasharray:none;stroke-opacity:1"
       d="M 102.13705,324.42569 L 202.85133,324.42568"
       id="path3173"
       sodipodi:nodetypes="cc" />
    <path
       sodipodi:nodetypes="cc"
       id="path3207"
       d="M 152.13705,184.42569 L 152.13705,324.42569"
       style="fill:none;fill-rule:evenodd;stroke:#0000f2;stroke-width:1px;stroke-linecap:butt;stroke-linejoin:miter;marker-start:url(#Arrow2LstartDm);marker-end:url(#Arrow2Lendw);stroke-opacity:1" />
    <path
       sodipodi:nodetypes="cc"
       id="path4510"
       d="M 152.13705,64.42569 L 152.13705,184.42569"
       style="fill:none;fill-rule:evenodd;stroke:#0000d1;stroke-width:1px;stroke-linecap:butt;stroke-linejoin:miter;marker-start:url(#Arrow2Lstart3R);marker-end:url(#Arrow2Lend7h);stroke-opacity:1" />
    <path
       style="font-size:40px;font-style:normal;font-weight:normal;line-height:100%;fill:#000000;fill-opacity:1;stroke:none;stroke-width:1px;stroke-linecap:butt;stroke-linejoin:miter;stroke-opacity:1;font-family:Bitstream Vera Sans"
       d="M 41.951511,196.90616 L 41.668308,199.70889 C 41.622731,200.19718 41.599944,200.68546 41.599949,201.17374 C 41.599944,202.10473 41.708994,202.66951 41.927097,202.86807 C 42.145191,203.06664 42.394214,203.16593 42.674168,203.16592 C 43.299161,203.16593 43.670255,202.77205 43.787449,201.98428 L 44.148777,201.98428 C 43.933926,203.79418 43.214526,204.69913 41.990574,204.69913 C 40.708018,204.69913 40.066743,203.96345 40.066746,202.4921 C 40.066743,201.74991 40.138357,200.82543 40.28159,199.71866 L 40.642918,196.90616 L 39.676121,196.90616 C 39.142265,196.90617 38.727226,196.99568 38.431004,197.17471 C 38.134779,197.35376 37.859714,197.71346 37.605808,198.25381 L 37.254246,198.25381 C 37.462579,197.53768 37.709974,196.96964 37.996433,196.54971 C 38.28289,196.1298 38.556328,195.8466 38.816746,195.7001 C 39.07716,195.55363 39.46453,195.48039 39.978855,195.48038 L 44.783543,195.48038 L 44.783543,196.90616 L 41.951511,196.90616 z M 45.472996,197.52725 L 53.902683,197.52725 L 53.902683,198.16788 L 45.472996,198.16788 L 45.472996,197.52725 z M 45.472996,200.07413 L 53.902683,200.07413 L 53.902683,200.71475 L 45.472996,200.71475 L 45.472996,200.07413 z M 61.660496,200.51944 L 61.660496,201.62881 L 60.238621,201.62881 L 60.238621,204.42569 L 58.949558,204.42569 L 58.949558,201.62881 L 54.465183,201.62881 L 54.465183,200.62881 L 59.379246,193.61319 L 60.238621,193.61319 L 60.238621,200.51944 L 61.660496,200.51944 z M 58.949558,200.51944 L 58.949558,195.26163 L 55.230808,200.51944 L 58.949558,200.51944 z M 64.215183,202.91006 C 64.459973,202.91007 64.665702,202.9947 64.832371,203.16397 C 64.999035,203.33324 65.082368,203.53767 65.082371,203.77725 C 65.082368,204.01684 64.997733,204.22126 64.828465,204.39053 C 64.659191,204.5598 64.454764,204.64444 64.215183,204.64444 C 63.975598,204.64444 63.771171,204.5598 63.601902,204.39053 C 63.43263,204.22126 63.347995,204.01684 63.347996,203.77725 C 63.347995,203.53246 63.43263,203.32673 63.601902,203.16006 C 63.771171,202.9934 63.975598,202.91007 64.215183,202.91006 L 64.215183,202.91006 z M 73.160496,193.83194 L 72.551121,195.16006 L 69.363621,195.16006 L 68.668308,196.58194 C 70.048513,196.78507 71.142262,197.29809 71.949558,198.121 C 72.64226,198.82934 72.988614,199.66267 72.988621,200.621 C 72.988614,201.1783 72.875333,201.69392 72.648777,202.16788 C 72.422208,202.64184 72.137052,203.04548 71.793308,203.37881 C 71.449553,203.71215 71.066741,203.98038 70.644871,204.1835 C 70.045909,204.46996 69.431326,204.61319 68.801121,204.61319 C 68.165702,204.61319 67.703463,204.50512 67.414402,204.28897 C 67.125339,204.07283 66.980807,203.83454 66.980808,203.57413 C 66.980807,203.42829 67.040703,203.29939 67.160496,203.18741 C 67.280286,203.07543 67.431328,203.01944 67.613621,203.01944 C 67.749036,203.01944 67.867525,203.04027 67.96909,203.08194 C 68.07065,203.12361 68.243827,203.23038 68.488621,203.40225 C 68.879243,203.67309 69.275076,203.8085 69.676121,203.8085 C 70.285492,203.8085 70.820647,203.57803 71.28159,203.1171 C 71.742521,202.65616 71.97299,202.09496 71.972996,201.4335 C 71.97299,200.79288 71.767261,200.19523 71.355808,199.64053 C 70.944345,199.08585 70.376637,198.65747 69.652683,198.35538 C 69.084972,198.12101 68.311535,197.98559 67.332371,197.94913 L 69.363621,193.83194 L 73.160496,193.83194 z M 76.801121,198.57413 C 77.639659,197.56372 78.439137,197.05851 79.199558,197.0585 C 79.590178,197.05851 79.926115,197.15617 80.207371,197.35147 C 80.488614,197.54679 80.712573,197.8684 80.879246,198.31631 C 80.993822,198.62882 81.051114,199.10799 81.051121,199.75381 L 81.051121,202.8085 C 81.051114,203.26163 81.087572,203.56892 81.160496,203.73038 C 81.21778,203.86059 81.310228,203.96215 81.43784,204.03506 C 81.565436,204.10798 81.801113,204.14444 82.144871,204.14444 L 82.144871,204.42569 L 78.605808,204.42569 L 78.605808,204.14444 L 78.754246,204.14444 C 79.087574,204.14444 79.320647,204.09366 79.453465,203.9921 C 79.586272,203.89053 79.678719,203.74079 79.730808,203.54288 C 79.751636,203.46475 79.762053,203.21996 79.762058,202.8085 L 79.762058,199.87881 C 79.762053,199.22778 79.677417,198.75512 79.508152,198.46085 C 79.338876,198.16658 79.05372,198.01945 78.652683,198.01944 C 78.032888,198.01945 77.415701,198.35799 76.801121,199.03506 L 76.801121,202.8085 C 76.801118,203.29288 76.829764,203.59236 76.887058,203.70694 C 76.959972,203.85798 77.060232,203.96866 77.18784,204.03897 C 77.315441,204.10928 77.574555,204.14444 77.965183,204.14444 L 77.965183,204.42569 L 74.426121,204.42569 L 74.426121,204.14444 L 74.582371,204.14444 C 74.946953,204.14444 75.193047,204.05199 75.320652,203.8671 C 75.448255,203.6822 75.512057,203.32934 75.512058,202.8085 L 75.512058,200.15225 C 75.512057,199.29288 75.492526,198.76945 75.453465,198.58194 C 75.414401,198.39445 75.354505,198.26684 75.273777,198.19913 C 75.193047,198.13143 75.084974,198.09757 74.949558,198.09756 C 74.803724,198.09757 74.629245,198.13663 74.426121,198.21475 L 74.308933,197.9335 L 76.465183,197.0585 L 76.801121,197.0585 L 76.801121,198.57413 z M 87.340183,197.0585 L 87.340183,199.496 L 87.082371,199.496 C 86.884449,198.73038 86.630543,198.20955 86.320652,197.9335 C 86.010752,197.65747 85.616222,197.51945 85.137058,197.51944 C 84.772472,197.51945 84.478202,197.6158 84.254246,197.8085 C 84.030286,198.00122 83.918307,198.21476 83.918308,198.44913 C 83.918307,198.7408 84.00164,198.9908 84.168308,199.19913 C 84.329764,199.41267 84.657889,199.63924 85.152683,199.87881 L 86.293308,200.4335 C 87.350595,200.94913 87.87924,201.62882 87.879246,202.47256 C 87.87924,203.12361 87.633147,203.64835 87.140965,204.04678 C 86.648773,204.44522 86.097992,204.64444 85.488621,204.64444 C 85.051118,204.64444 84.551118,204.56631 83.988621,204.41006 C 83.816744,204.35798 83.676119,204.33194 83.566746,204.33194 C 83.446953,204.33194 83.353203,204.39965 83.285496,204.53506 L 83.027683,204.53506 L 83.027683,201.98038 L 83.285496,201.98038 C 83.431328,202.70955 83.709973,203.25902 84.121433,203.62881 C 84.532889,203.99861 84.993826,204.1835 85.504246,204.1835 C 85.863617,204.1835 86.156586,204.07803 86.383152,203.8671 C 86.60971,203.65616 86.722991,203.40225 86.722996,203.10538 C 86.722991,202.746 86.596689,202.44392 86.34409,202.19913 C 86.091481,201.95434 85.587576,201.64444 84.832371,201.26944 C 84.077161,200.89444 83.582369,200.5559 83.347996,200.25381 C 83.11362,199.95694 82.996432,199.58194 82.996433,199.12881 C 82.996432,198.54028 83.198255,198.04809 83.601902,197.65225 C 84.005546,197.25643 84.527681,197.05851 85.168308,197.0585 C 85.449555,197.05851 85.790701,197.11841 86.191746,197.23819 C 86.457367,197.31632 86.63445,197.35538 86.722996,197.35538 C 86.806325,197.35538 86.871429,197.33716 86.918308,197.30069 C 86.965179,197.26424 87.019866,197.18351 87.082371,197.0585 L 87.340183,197.0585 z"
       id="text5214" />
    <g
       id="g5232"
       transform="translate(49.737943,-68.441569)">
      <text
         xml:space="preserve"
         style="font-size:40px;font-style:normal;font-weight:normal;line-height:100%;fill:#000000;fill-opacity:1;stroke:none;stroke-width:1px;stroke-linecap:butt;stroke-linejoin:miter;stroke-opacity:1;font-family:Bitstream Vera Sans"
         x="-15"
         y="252.36218"
         id="text5206"
         sodipodi:linespacing="100%"><tspan
           sodipodi:role="line"
           id="tspan5208"
           x="-15"
           y="252.36218"
           style="font-size:16px;font-style:normal;font-variant:normal;font-weight:normal;font-stretch:normal;text-align:start;line-height:100%;writing-mode:lr-tb;text-anchor:start;font-family:Arial;-inkscape-font-specification:Arial">4s4p  P</tspan></text>
      <text
         xml:space="preserve"
         style="font-size:40px;font-style:normal;font-weight:normal;line-height:100%;fill:#000000;fill-opacity:1;stroke:none;stroke-width:1px;stroke-linecap:butt;stroke-linejoin:miter;stroke-opacity:1;font-family:Bitstream Vera Sans"
         x="22.399113"
         y="242.86726"
         id="text5224"
         sodipodi:linespacing="100%"><tspan
           sodipodi:role="line"
           id="tspan5226"
           x="22.399113"
           y="242.86726"
           style="font-size:13px;font-style:normal;font-variant:normal;font-weight:normal;font-stretch:normal;text-align:start;line-height:100%;writing-mode:lr-tb;text-anchor:start;font-family:Arial;-inkscape-font-specification:Arial">1</tspan></text>
      <text
         xml:space="preserve"
         style="font-size:40px;font-style:normal;font-weight:normal;line-height:100%;fill:#000000;fill-opacity:1;stroke:none;stroke-width:1px;stroke-linecap:butt;stroke-linejoin:miter;stroke-opacity:1;font-family:Bitstream Vera Sans"
         x="38.160591"
         y="258.12967"
         id="text5228"
         sodipodi:linespacing="100%"><tspan
           sodipodi:role="line"
           id="tspan5230"
           x="38.160591"
           y="258.12967"
           style="font-size:13px;font-style:normal;font-variant:normal;font-weight:normal;font-stretch:normal;text-align:start;line-height:100%;writing-mode:lr-tb;text-anchor:start;font-family:Arial;-inkscape-font-specification:Arial">1</tspan></text>
    </g>
    <g
       id="g5240"
       transform="translate(58.976463,51.29602)">
      <g
         id="g5258"
         transform="translate(-5.3571429,18.571429)">
        <text
           sodipodi:linespacing="100%"
           id="text5242"
           y="258.12967"
           x="-6.8394089"
           style="font-size:40px;font-style:normal;font-weight:normal;line-height:100%;fill:#000000;fill-opacity:1;stroke:none;stroke-width:1px;stroke-linecap:butt;stroke-linejoin:miter;stroke-opacity:1;font-family:Bitstream Vera Sans"
           xml:space="preserve"><tspan
             style="font-size:16px;font-style:normal;font-variant:normal;font-weight:normal;font-stretch:normal;text-align:start;line-height:100%;writing-mode:lr-tb;text-anchor:start;font-family:Arial;-inkscape-font-specification:Arial"
             y="258.12967"
             x="-6.8394089"
             id="tspan5244"
             sodipodi:role="line">4s    S</tspan></text>
        <text
           sodipodi:linespacing="100%"
           id="text5246"
           y="250.01012"
           x="22.041969"
           style="font-size:40px;font-style:normal;font-weight:normal;line-height:100%;fill:#000000;fill-opacity:1;stroke:none;stroke-width:1px;stroke-linecap:butt;stroke-linejoin:miter;stroke-opacity:1;font-family:Bitstream Vera Sans"
           xml:space="preserve"><tspan
             style="font-size:13px;font-style:normal;font-variant:normal;font-weight:normal;font-stretch:normal;text-align:start;line-height:100%;writing-mode:lr-tb;text-anchor:start;font-family:Arial;-inkscape-font-specification:Arial"
             y="250.01012"
             x="22.041969"
             id="tspan5248"
             sodipodi:role="line">1</tspan></text>
        <text
           sodipodi:linespacing="100%"
           id="text5250"
           y="263.12967"
           x="38.874878"
           style="font-size:40px;font-style:normal;font-weight:normal;line-height:100%;fill:#000000;fill-opacity:1;stroke:none;stroke-width:1px;stroke-linecap:butt;stroke-linejoin:miter;stroke-opacity:1;font-family:Bitstream Vera Sans"
           xml:space="preserve"><tspan
             style="font-size:13px;font-style:normal;font-variant:normal;font-weight:normal;font-stretch:normal;text-align:start;line-height:100%;writing-mode:lr-tb;text-anchor:start;font-family:Arial;-inkscape-font-specification:Arial"
             y="263.12967"
             x="38.874878"
             id="tspan5252"
             sodipodi:role="line">0</tspan></text>
        <text
           sodipodi:linespacing="100%"
           id="text5254"
           y="250.62967"
           x="11.017734"
           style="font-size:40px;font-style:normal;font-weight:normal;line-height:100%;fill:#000000;fill-opacity:1;stroke:none;stroke-width:1px;stroke-linecap:butt;stroke-linejoin:miter;stroke-opacity:1;font-family:Bitstream Vera Sans"
           xml:space="preserve"><tspan
             style="font-size:13px;font-style:normal;font-variant:normal;font-weight:normal;font-stretch:normal;text-align:start;line-height:100%;writing-mode:lr-tb;text-anchor:start;font-family:Arial;-inkscape-font-specification:Arial"
             y="250.62967"
             x="11.017734"
             id="tspan5256"
             sodipodi:role="line">2</tspan></text>
        <text
           xml:space="preserve"
           style="font-size:40px;font-style:normal;font-weight:normal;line-height:125%;fill:#000000;fill-opacity:1;stroke:none;stroke-width:1px;stroke-linecap:butt;stroke-linejoin:miter;stroke-opacity:1;font-family:Bitstream Vera Sans"
           x="-11.482266"
           y="-5.4417562"
           id="text5268"
           sodipodi:linespacing="125%"><tspan
             sodipodi:role="line"
             id="tspan5270"
             x="-11.482266"
             y="-5.4417562"
             style="font-size:18px;font-style:normal;font-variant:normal;font-weight:normal;font-stretch:normal;text-align:start;line-height:125%;writing-mode:lr-tb;text-anchor:start;font-family:Arial;-inkscape-font-specification:Arial">Ca (II)</tspan></text>
      </g>
    </g>
    <path
       style="font-size:16px;font-style:normal;font-variant:normal;font-weight:normal;font-stretch:normal;text-align:end;line-height:100%;writing-mode:lr-tb;text-anchor:end;fill:#000000;fill-opacity:1;stroke:none;stroke-width:1px;stroke-linecap:butt;stroke-linejoin:miter;stroke-opacity:1;font-family:Arial;-inkscape-font-specification:Arial"
       d="M 157.80893,116.40225 L 159.21518,116.21475 C 159.37664,117.01163 159.65137,117.58585 160.0394,117.93741 C 160.42742,118.28897 160.90007,118.46475 161.45737,118.46475 C 162.11882,118.46475 162.67741,118.23559 163.13315,117.77725 C 163.58887,117.31892 163.81674,116.75121 163.81674,116.07413 C 163.81674,115.4283 163.6058,114.89575 163.18393,114.47647 C 162.76205,114.05721 162.22559,113.84757 161.57455,113.84756 C 161.30893,113.84757 160.9782,113.89965 160.58237,114.00381 L 160.73862,112.76944 C 160.83236,112.77986 160.90788,112.78507 160.96518,112.78506 C 161.56413,112.78507 162.1032,112.62882 162.58237,112.31631 C 163.06153,112.00382 163.30111,111.52205 163.30112,110.871 C 163.30111,110.35539 163.12663,109.9283 162.77768,109.58975 C 162.42872,109.25122 161.9782,109.08195 161.42612,109.08194 C 160.87924,109.08195 160.42351,109.25382 160.05893,109.59756 C 159.69434,109.94132 159.45997,110.45695 159.3558,111.14444 L 157.94955,110.89444 C 158.12143,109.95174 158.51205,109.22127 159.12143,108.70303 C 159.7308,108.18482 160.48861,107.9257 161.39487,107.92569 C 162.01986,107.9257 162.59538,108.05982 163.12143,108.32803 C 163.64746,108.59627 164.04981,108.96216 164.32846,109.42569 C 164.6071,109.88924 164.74642,110.38143 164.74643,110.90225 C 164.74642,111.39705 164.61361,111.84757 164.34799,112.25381 C 164.08236,112.66007 163.68913,112.98299 163.1683,113.22256 C 163.84538,113.37882 164.37142,113.70304 164.74643,114.19522 C 165.12142,114.68741 165.30892,115.3033 165.30893,116.04288 C 165.30892,117.04288 164.94434,117.89053 164.21518,118.58585 C 163.48601,119.28116 162.56413,119.62881 161.44955,119.62881 C 160.44434,119.62881 159.60971,119.32934 158.94565,118.73038 C 158.28158,118.13142 157.90268,117.35538 157.80893,116.40225 L 157.80893,116.40225 z M 166.9183,116.77725 L 168.26987,116.65225 C 168.38445,117.28767 168.6032,117.74861 168.92612,118.03506 C 169.24903,118.32152 169.66309,118.46475 170.1683,118.46475 C 170.60059,118.46475 170.9795,118.36579 171.30502,118.16788 C 171.63054,117.96996 171.89747,117.70564 172.1058,117.37491 C 172.31413,117.04418 172.48861,116.59757 172.62924,116.03506 C 172.76986,115.47257 172.84017,114.89965 172.84018,114.31631 C 172.84017,114.25382 172.83757,114.16007 172.83237,114.03506 C 172.55111,114.48299 172.167,114.84627 171.68002,115.12491 C 171.19304,115.40356 170.6657,115.54288 170.09799,115.54288 C 169.15007,115.54288 168.34799,115.19913 167.69174,114.51163 C 167.03549,113.82413 166.70737,112.91788 166.70737,111.79288 C 166.70737,110.63143 167.04981,109.69653 167.73471,108.98819 C 168.4196,108.27987 169.27768,107.9257 170.30893,107.92569 C 171.05372,107.9257 171.73471,108.12622 172.3519,108.52725 C 172.96908,108.9283 173.43783,109.49992 173.75815,110.2421 C 174.07845,110.98429 174.23861,112.05851 174.23862,113.46475 C 174.23861,114.9283 174.07975,116.09366 173.76205,116.96085 C 173.44434,117.82804 172.97168,118.48819 172.34409,118.94131 C 171.71648,119.39444 170.9808,119.621 170.13705,119.621 C 169.24122,119.621 168.50945,119.3723 167.94174,118.87491 C 167.37403,118.37751 167.03289,117.6783 166.9183,116.77725 L 166.9183,116.77725 z M 172.67612,111.72256 C 172.67611,110.91528 172.46127,110.27466 172.03159,109.80069 C 171.60189,109.32674 171.08497,109.08976 170.4808,109.08975 C 169.8558,109.08976 169.31153,109.34497 168.84799,109.85538 C 168.38445,110.3658 168.15268,111.02726 168.15268,111.83975 C 168.15268,112.56893 168.37273,113.16137 168.81284,113.6171 C 169.25294,114.07283 169.7959,114.30069 170.44174,114.30069 C 171.09278,114.30069 171.62793,114.07283 172.04721,113.6171 C 172.46648,113.16137 172.67611,112.52986 172.67612,111.72256 L 172.67612,111.72256 z M 175.61362,113.77725 C 175.61362,112.42309 175.75294,111.33325 176.03159,110.50772 C 176.31023,109.68221 176.72429,109.04549 177.27377,108.59756 C 177.82325,108.14966 178.51466,107.9257 179.34799,107.92569 C 179.96257,107.9257 180.50163,108.0494 180.96518,108.29678 C 181.42871,108.54419 181.81153,108.90096 182.11362,109.3671 C 182.41569,109.83325 182.65267,110.40096 182.82455,111.07022 C 182.99642,111.7395 183.08236,112.64184 183.08237,113.77725 C 183.08236,115.12101 182.94434,116.20564 182.6683,117.03116 C 182.39226,117.85668 181.9795,118.4947 181.43002,118.94522 C 180.88054,119.39574 180.18653,119.621 179.34799,119.621 C 178.24382,119.621 177.37664,119.22517 176.74643,118.4335 C 175.99122,117.48038 175.61362,115.9283 175.61362,113.77725 L 175.61362,113.77725 z M 177.05893,113.77725 C 177.05893,115.65746 177.27898,116.90877 177.71909,117.53116 C 178.15919,118.15356 178.70215,118.46475 179.34799,118.46475 C 179.99382,118.46475 180.53679,118.15225 180.9769,117.52725 C 181.417,116.90225 181.63705,115.65226 181.63705,113.77725 C 181.63705,111.89184 181.417,110.63924 180.9769,110.01944 C 180.53679,109.39966 179.98861,109.08976 179.33237,109.08975 C 178.68653,109.08976 178.17091,109.3632 177.78549,109.91006 C 177.30111,110.60799 177.05893,111.89705 177.05893,113.77725 L 177.05893,113.77725 z M 184.91049,119.42569 L 184.91049,111.12881 L 186.17612,111.12881 L 186.17612,112.3085 C 186.78549,111.39705 187.6657,110.94132 188.81674,110.94131 C 189.31674,110.94132 189.77637,111.03117 190.19565,111.21085 C 190.61491,111.39054 190.92871,111.62622 191.13705,111.91788 C 191.34538,112.20955 191.49121,112.5559 191.57455,112.95694 C 191.62663,113.21736 191.65267,113.67309 191.65268,114.32413 L 191.65268,119.42569 L 190.24643,119.42569 L 190.24643,114.37881 C 190.24642,113.8059 190.19174,113.37752 190.08237,113.09366 C 189.97299,112.80981 189.77898,112.58325 189.50034,112.41397 C 189.22168,112.24471 188.89486,112.16007 188.51987,112.16006 C 187.9209,112.16007 187.40398,112.35018 186.96909,112.73038 C 186.53419,113.11059 186.31674,113.83195 186.31674,114.89444 L 186.31674,119.42569 L 184.91049,119.42569 z M 193.81674,119.42569 L 193.81674,111.12881 L 195.07455,111.12881 L 195.07455,112.29288 C 195.33497,111.88663 195.68132,111.55981 196.11362,111.31241 C 196.5459,111.06502 197.03809,110.94132 197.59018,110.94131 C 198.20476,110.94132 198.70866,111.06893 199.1019,111.32413 C 199.49512,111.57934 199.77246,111.93611 199.93393,112.39444 C 200.59017,111.4257 201.44434,110.94132 202.49643,110.94131 C 203.31934,110.94132 203.95215,111.16919 204.39487,111.62491 C 204.83756,112.08064 205.05892,112.78247 205.05893,113.73038 L 205.05893,119.42569 L 203.66049,119.42569 L 203.66049,114.19913 C 203.66048,113.63663 203.61491,113.23169 203.52377,112.98428 C 203.43262,112.73689 203.26725,112.53768 203.02768,112.38663 C 202.78809,112.23559 202.50684,112.16007 202.18393,112.16006 C 201.60059,112.16007 201.11621,112.35408 200.7308,112.7421 C 200.34538,113.13012 200.15267,113.75122 200.15268,114.60538 L 200.15268,119.42569 L 198.74643,119.42569 L 198.74643,114.03506 C 198.74642,113.41007 198.63184,112.94132 198.40268,112.62881 C 198.17351,112.31632 197.79851,112.16007 197.27768,112.16006 C 196.88184,112.16007 196.51596,112.26424 196.18002,112.47256 C 195.84408,112.6809 195.60059,112.98559 195.44955,113.38663 C 195.29851,113.78767 195.22299,114.3658 195.22299,115.121 L 195.22299,119.42569 L 193.81674,119.42569 z"
       id="text5272" />
    <path
       style="font-size:16px;font-style:normal;font-variant:normal;font-weight:normal;font-stretch:normal;text-align:end;line-height:100%;writing-mode:lr-tb;text-anchor:end;fill:#000000;fill-opacity:1;stroke:none;stroke-width:1px;stroke-linecap:butt;stroke-linejoin:miter;stroke-opacity:1;font-family:Arial;-inkscape-font-specification:Arial"
       d="M 162.30893,249.42569 L 162.30893,246.6835 L 157.34018,246.6835 L 157.34018,245.39444 L 162.56674,237.97256 L 163.71518,237.97256 L 163.71518,245.39444 L 165.26205,245.39444 L 165.26205,246.6835 L 163.71518,246.6835 L 163.71518,249.42569 L 162.30893,249.42569 z M 162.30893,245.39444 L 162.30893,240.23038 L 158.72299,245.39444 L 162.30893,245.39444 z M 174.09799,248.07413 L 174.09799,249.42569 L 166.52768,249.42569 C 166.51726,249.08715 166.57195,248.76163 166.69174,248.44913 C 166.88445,247.9335 167.19304,247.42569 167.61752,246.92569 C 168.042,246.42569 168.65528,245.84757 169.45737,245.19131 C 170.70215,244.17049 171.5433,243.36189 171.9808,242.76553 C 172.4183,242.16919 172.63705,241.60539 172.63705,241.07413 C 172.63705,240.51684 172.43783,240.04679 172.0394,239.66397 C 171.64096,239.28117 171.12142,239.08976 170.4808,239.08975 C 169.80372,239.08976 169.26205,239.29289 168.8558,239.69913 C 168.44955,240.10539 168.24382,240.66789 168.23862,241.38663 L 166.7933,241.23819 C 166.89226,240.16007 167.26466,239.33846 167.91049,238.77335 C 168.55632,238.20825 169.42351,237.9257 170.51205,237.92569 C 171.61101,237.9257 172.4808,238.23039 173.12143,238.83975 C 173.76205,239.44914 174.08236,240.20434 174.08237,241.10538 C 174.08236,241.56372 173.98861,242.01424 173.80112,242.45694 C 173.61361,242.89965 173.30241,243.3658 172.86752,243.85538 C 172.43262,244.34497 171.70997,245.01684 170.69955,245.871 C 169.8558,246.57934 169.31413,247.05981 169.07455,247.31241 C 168.83497,247.56501 168.63705,247.81892 168.4808,248.07413 L 174.09799,248.07413 z M 175.62143,246.40225 L 177.02768,246.21475 C 177.18914,247.01163 177.46387,247.58585 177.8519,247.93741 C 178.23992,248.28897 178.71257,248.46475 179.26987,248.46475 C 179.93132,248.46475 180.48991,248.23559 180.94565,247.77725 C 181.40137,247.31892 181.62924,246.75121 181.62924,246.07413 C 181.62924,245.4283 181.4183,244.89575 180.99643,244.47647 C 180.57455,244.05721 180.03809,243.84757 179.38705,243.84756 C 179.12143,243.84757 178.7907,243.89965 178.39487,244.00381 L 178.55112,242.76944 C 178.64486,242.77986 178.72038,242.78507 178.77768,242.78506 C 179.37663,242.78507 179.9157,242.62882 180.39487,242.31631 C 180.87403,242.00382 181.11361,241.52205 181.11362,240.871 C 181.11361,240.35539 180.93913,239.9283 180.59018,239.58975 C 180.24122,239.25122 179.7907,239.08195 179.23862,239.08194 C 178.69174,239.08195 178.23601,239.25382 177.87143,239.59756 C 177.50684,239.94132 177.27247,240.45695 177.1683,241.14444 L 175.76205,240.89444 C 175.93393,239.95174 176.32455,239.22127 176.93393,238.70303 C 177.5433,238.18482 178.30111,237.9257 179.20737,237.92569 C 179.83236,237.9257 180.40788,238.05982 180.93393,238.32803 C 181.45996,238.59627 181.86231,238.96216 182.14096,239.42569 C 182.4196,239.88924 182.55892,240.38143 182.55893,240.90225 C 182.55892,241.39705 182.42611,241.84757 182.16049,242.25381 C 181.89486,242.66007 181.50163,242.98299 180.9808,243.22256 C 181.65788,243.37882 182.18392,243.70304 182.55893,244.19522 C 182.93392,244.68741 183.12142,245.3033 183.12143,246.04288 C 183.12142,247.04288 182.75684,247.89053 182.02768,248.58585 C 181.29851,249.28116 180.37663,249.62881 179.26205,249.62881 C 178.25684,249.62881 177.42221,249.32934 176.75815,248.73038 C 176.09408,248.13142 175.71518,247.35538 175.62143,246.40225 L 175.62143,246.40225 z M 184.91049,249.42569 L 184.91049,241.12881 L 186.17612,241.12881 L 186.17612,242.3085 C 186.78549,241.39705 187.6657,240.94132 188.81674,240.94131 C 189.31674,240.94132 189.77637,241.03117 190.19565,241.21085 C 190.61491,241.39054 190.92871,241.62622 191.13705,241.91788 C 191.34538,242.20955 191.49121,242.5559 191.57455,242.95694 C 191.62663,243.21736 191.65267,243.67309 191.65268,244.32413 L 191.65268,249.42569 L 190.24643,249.42569 L 190.24643,244.37881 C 190.24642,243.8059 190.19174,243.37752 190.08237,243.09366 C 189.97299,242.80981 189.77898,242.58325 189.50034,242.41397 C 189.22168,242.24471 188.89486,242.16007 188.51987,242.16006 C 187.9209,242.16007 187.40398,242.35018 186.96909,242.73038 C 186.53419,243.11059 186.31674,243.83195 186.31674,244.89444 L 186.31674,249.42569 L 184.91049,249.42569 z M 193.81674,249.42569 L 193.81674,241.12881 L 195.07455,241.12881 L 195.07455,242.29288 C 195.33497,241.88663 195.68132,241.55981 196.11362,241.31241 C 196.5459,241.06502 197.03809,240.94132 197.59018,240.94131 C 198.20476,240.94132 198.70866,241.06893 199.1019,241.32413 C 199.49512,241.57934 199.77246,241.93611 199.93393,242.39444 C 200.59017,241.4257 201.44434,240.94132 202.49643,240.94131 C 203.31934,240.94132 203.95215,241.16919 204.39487,241.62491 C 204.83756,242.08064 205.05892,242.78247 205.05893,243.73038 L 205.05893,249.42569 L 203.66049,249.42569 L 203.66049,244.19913 C 203.66048,243.63663 203.61491,243.23169 203.52377,242.98428 C 203.43262,242.73689 203.26725,242.53768 203.02768,242.38663 C 202.78809,242.23559 202.50684,242.16007 202.18393,242.16006 C 201.60059,242.16007 201.11621,242.35408 200.7308,242.7421 C 200.34538,243.13012 200.15267,243.75122 200.15268,244.60538 L 200.15268,249.42569 L 198.74643,249.42569 L 198.74643,244.03506 C 198.74642,243.41007 198.63184,242.94132 198.40268,242.62881 C 198.17351,242.31632 197.79851,242.16007 197.27768,242.16006 C 196.88184,242.16007 196.51596,242.26424 196.18002,242.47256 C 195.84408,242.6809 195.60059,242.98559 195.44955,243.38663 C 195.29851,243.78767 195.22299,244.3658 195.22299,245.121 L 195.22299,249.42569 L 193.81674,249.42569 z"
       id="text5278" />
  </g>
</svg>
