<?xml version="1.0" encoding="UTF-8" standalone="no"?>
<!-- Created with Inkscape (http://www.inkscape.org/) -->
<svg
   xmlns:dc="http://purl.org/dc/elements/1.1/"
   xmlns:cc="http://web.resource.org/cc/"
   xmlns:rdf="http://www.w3.org/1999/02/22-rdf-syntax-ns#"
   xmlns:svg="http://www.w3.org/2000/svg"
   xmlns="http://www.w3.org/2000/svg"
   xmlns:sodipodi="http://sodipodi.sourceforge.net/DTD/sodipodi-0.dtd"
   xmlns:inkscape="http://www.inkscape.org/namespaces/inkscape"
   width="744.09448819"
   height="1052.3622047"
   id="svg4637"
   sodipodi:version="0.32"
   inkscape:version="0.45"
   sodipodi:docbase="/home/imreh/thesis/chapter4/854layout"
   sodipodi:docname="854layout_v2.svg"
   inkscape:output_extension="org.inkscape.output.svg.inkscape"
   sodipodi:modified="true">
  <defs
     id="defs4639">
    <marker
       inkscape:stockid="TriangleOutL"
       orient="auto"
       refY="0.0"
       refX="0.0"
       id="TriangleOutL"
       style="overflow:visible">
      <path
         id="path3242"
         d="M 5.77,0.0 L -2.88,5.0 L -2.88,-5.0 L 5.77,0.0 z "
         style="fill-rule:evenodd;stroke:#000000;stroke-width:1.0pt;marker-start:none"
         transform="scale(0.8)" />
    </marker>
  </defs>
  <sodipodi:namedview
     id="base"
     pagecolor="#ffffff"
     bordercolor="#666666"
     borderopacity="1.0"
     gridtolerance="10000"
     guidetolerance="10"
     objecttolerance="10"
     inkscape:pageopacity="0.0"
     inkscape:pageshadow="2"
     inkscape:zoom="2.0000001"
     inkscape:cx="254.28065"
     inkscape:cy="412.76879"
     inkscape:document-units="px"
     inkscape:current-layer="layer1"
     inkscape:window-width="1280"
     inkscape:window-height="969"
     inkscape:window-x="0"
     inkscape:window-y="24" />
  <metadata
     id="metadata4642">
    <rdf:RDF>
      <cc:Work
         rdf:about="">
        <dc:format>image/svg+xml</dc:format>
        <dc:type
           rdf:resource="http://purl.org/dc/dcmitype/StillImage" />
      </cc:Work>
    </rdf:RDF>
  </metadata>
  <g
     inkscape:label="Layer 1"
     inkscape:groupmode="layer"
     id="layer1">
    <rect
       style="fill:none;fill-opacity:1;stroke:#000000;stroke-width:2.5;stroke-linecap:square;stroke-linejoin:bevel;stroke-miterlimit:4;stroke-dasharray:none;stroke-opacity:1"
       id="rect2160"
       width="105.38831"
       height="40.233475"
       x="143.8712"
       y="761.64557" />
    <text
       xml:space="preserve"
       style="font-size:12px;font-style:normal;font-weight:normal;fill:#000000;fill-opacity:1;stroke:none;stroke-width:2.5;stroke-linecap:butt;stroke-linejoin:miter;stroke-miterlimit:4;stroke-dasharray:none;stroke-opacity:1;font-family:Bitstream Vera Sans"
       x="176.74344"
       y="785.19244"
       id="text4352"><tspan
         sodipodi:role="line"
         id="tspan4354"
         x="176.74344"
         y="785.19244">854nm</tspan></text>
    <path
       style="fill:none;fill-rule:evenodd;stroke:#ff0000;stroke-width:1px;stroke-linecap:butt;stroke-linejoin:miter;stroke-opacity:1"
       d="M 116.49275,778.35194 L 143.72757,777.79613"
       id="path21821"
       sodipodi:nodetypes="cc" />
    <path
       style="fill:none;fill-rule:evenodd;stroke:#ff0000;stroke-width:1px;stroke-linecap:butt;stroke-linejoin:miter;stroke-opacity:1"
       d="M 115.93694,778.35194 L 115.38112,730.55204"
       id="path22794"
       sodipodi:nodetypes="cc" />
    <path
       style="fill:none;fill-opacity:1;fill-rule:evenodd;stroke:#ff0000;stroke-width:1px;stroke-linecap:butt;stroke-linejoin:miter;stroke-opacity:1"
       d="M 115.93694,730.55204 L 400.63851,730.71052"
       id="path23765"
       sodipodi:nodetypes="cc" />
    <path
       style="fill:none;fill-rule:evenodd;stroke:#ff0000;stroke-width:1px;stroke-linecap:butt;stroke-linejoin:miter;marker-mid:none;stroke-opacity:1"
       d="M 401.06893,731.10786 L 283.42287,684.40337"
       id="path30663"
       sodipodi:nodetypes="cc" />
    <path
       style="fill:none;fill-rule:evenodd;stroke:#ff0000;stroke-width:1px;stroke-linecap:butt;stroke-linejoin:miter;stroke-opacity:1"
       d="M 300.00991,781.70469 L 388.76527,782.9748"
       id="path30667"
       sodipodi:nodetypes="cc" />
    <path
       style="fill:none;fill-rule:evenodd;stroke:#ff0000;stroke-width:1px;stroke-linecap:butt;stroke-linejoin:miter;marker-mid:none;stroke-opacity:1"
       d="M 399.9573,731.15858 L 360.33986,751.36172 L 300.46681,781.131"
       id="path34561"
       sodipodi:nodetypes="ccc" />
    <text
       xml:space="preserve"
       style="font-size:12px;font-style:normal;font-weight:normal;fill:#000000;fill-opacity:1;stroke:none;stroke-width:1px;stroke-linecap:butt;stroke-linejoin:miter;stroke-opacity:1;font-family:Bitstream Vera Sans"
       x="364.08804"
       y="823.22461"
       id="text36521"><tspan
         sodipodi:role="line"
         x="364.08804"
         y="823.22461"
         style="font-size:14px"
         id="tspan39759">Fibre to wavelength meter</tspan></text>
    <g
       id="g36542"
       transform="translate(72.423645,648.52218)"
       style="stroke-width:2.5;stroke-miterlimit:4;stroke-dasharray:none">
      <path
         d="M 324.52523 134.12457 A 2.8138027 19.696619 0 1 1  318.89762,134.12457 A 2.8138027 19.696619 0 1 1  324.52523 134.12457 z"
         sodipodi:ry="19.696619"
         sodipodi:rx="2.8138027"
         sodipodi:cy="134.12457"
         sodipodi:cx="321.71143"
         id="path36544"
         style="fill:none;fill-opacity:1;stroke:#000000;stroke-width:2.5;stroke-linecap:square;stroke-linejoin:bevel;stroke-miterlimit:4;stroke-dasharray:none;stroke-opacity:1"
         sodipodi:type="arc" />
      <path
         id="path36546"
         d="M 325.63686,134.15931 C 332.47456,133.7756 334.55502,152.19055 335.17803,134.79925 C 334.84492,123.09299 347.76038,119.74943 347.81837,134.87573 C 345.07606,164.58524 334.59467,115.44 353.91384,128.67066"
         style="fill:none;fill-rule:evenodd;stroke:#000000;stroke-width:2.5;stroke-linecap:butt;stroke-linejoin:miter;stroke-miterlimit:4;stroke-dasharray:none;stroke-opacity:1"
         sodipodi:nodetypes="cccc" />
    </g>
    <g
       id="g37655"
       transform="matrix(0.8058681,-0.5920951,0.5920951,0.8058681,12.298567,415.85075)">
      <path
         inkscape:transform-center-y="-1.588365"
         inkscape:transform-center-x="-1.9633264"
         id="path37657"
         d="M 14.517775,441.7987 L 15.065595,484.2336"
         style="fill:none;fill-rule:evenodd;stroke:#000000;stroke-width:2.5;stroke-linecap:butt;stroke-linejoin:miter;stroke-miterlimit:4;stroke-dasharray:none;stroke-opacity:1" />
      <path
         id="path37659"
         d="M 11.109702,442.5404 C 11.428998,443.12079 13.105459,445.50501 13.73761,446.54987 C 14.147803,447.22787 14.191421,447.61362 14.546197,448.05342"
         style="fill:none;fill-rule:evenodd;stroke:#000000;stroke-width:0.80987495px;stroke-linecap:butt;stroke-linejoin:miter;stroke-opacity:1" />
      <path
         id="path37661"
         d="M 10.806482,448.80519 C 11.125779,449.38557 12.802239,451.7698 13.434391,452.81466 C 13.844584,453.49265 13.888202,453.8784 14.242978,454.3182"
         style="fill:none;fill-rule:evenodd;stroke:#000000;stroke-width:0.80987495px;stroke-linecap:butt;stroke-linejoin:miter;stroke-opacity:1" />
      <path
         id="path37663"
         d="M 10.604335,454.3182 C 10.923632,454.89858 12.600092,457.28281 13.232243,458.32767 C 13.642436,459.00566 13.686054,459.39141 14.040831,459.83121"
         style="fill:none;fill-rule:evenodd;stroke:#000000;stroke-width:0.80987495px;stroke-linecap:butt;stroke-linejoin:miter;stroke-opacity:1" />
      <path
         id="path37665"
         d="M 10.604335,460.08181 C 10.923632,460.66219 12.600092,463.04641 13.232243,464.09127 C 13.642436,464.76927 13.686054,465.15502 14.040831,465.59482"
         style="fill:none;fill-rule:evenodd;stroke:#000000;stroke-width:0.80987495px;stroke-linecap:butt;stroke-linejoin:miter;stroke-opacity:1" />
      <path
         id="path37667"
         d="M 10.806482,466.59719 C 11.125779,467.17757 12.802238,469.56179 13.43439,470.60665 C 13.844583,471.28465 13.888201,471.6704 14.242977,472.11021"
         style="fill:none;fill-rule:evenodd;stroke:#000000;stroke-width:0.80987495px;stroke-linecap:butt;stroke-linejoin:miter;stroke-opacity:1" />
      <path
         id="path37669"
         d="M 10.604335,472.61138 C 10.923632,473.19176 12.600092,475.57598 13.232243,476.62084 C 13.642436,477.29884 13.686054,477.68459 14.040831,478.1244"
         style="fill:none;fill-rule:evenodd;stroke:#000000;stroke-width:0.80987495px;stroke-linecap:butt;stroke-linejoin:miter;stroke-opacity:1" />
      <path
         id="path37671"
         d="M 10.806482,478.62558 C 11.125778,479.20596 12.802238,481.59018 13.43439,482.63504 C 13.844583,483.31304 13.888201,483.69879 14.242977,484.1386"
         style="fill:none;fill-rule:evenodd;stroke:#000000;stroke-width:0.80987495px;stroke-linecap:butt;stroke-linejoin:miter;stroke-opacity:1" />
    </g>
    <g
       id="g37691"
       transform="matrix(0.9749266,0.2225269,-0.2225269,0.9749266,369.02879,233.25336)">
      <path
         inkscape:transform-center-y="-1.588365"
         inkscape:transform-center-x="-1.9633264"
         id="path37693"
         d="M 14.517775,441.7987 L 15.065595,484.2336"
         style="fill:none;fill-rule:evenodd;stroke:#000000;stroke-width:2.5;stroke-linecap:butt;stroke-linejoin:miter;stroke-miterlimit:4;stroke-dasharray:none;stroke-opacity:1" />
      <path
         id="path37695"
         d="M 11.109702,442.5404 C 11.428998,443.12079 13.105459,445.50501 13.73761,446.54987 C 14.147803,447.22787 14.191421,447.61362 14.546197,448.05342"
         style="fill:none;fill-rule:evenodd;stroke:#000000;stroke-width:0.80987495px;stroke-linecap:butt;stroke-linejoin:miter;stroke-opacity:1" />
      <path
         id="path37697"
         d="M 10.806482,448.80519 C 11.125779,449.38557 12.802239,451.7698 13.434391,452.81466 C 13.844584,453.49265 13.888202,453.8784 14.242978,454.3182"
         style="fill:none;fill-rule:evenodd;stroke:#000000;stroke-width:0.80987495px;stroke-linecap:butt;stroke-linejoin:miter;stroke-opacity:1" />
      <path
         id="path37699"
         d="M 10.604335,454.3182 C 10.923632,454.89858 12.600092,457.28281 13.232243,458.32767 C 13.642436,459.00566 13.686054,459.39141 14.040831,459.83121"
         style="fill:none;fill-rule:evenodd;stroke:#000000;stroke-width:0.80987495px;stroke-linecap:butt;stroke-linejoin:miter;stroke-opacity:1" />
      <path
         id="path37701"
         d="M 10.604335,460.08181 C 10.923632,460.66219 12.600092,463.04641 13.232243,464.09127 C 13.642436,464.76927 13.686054,465.15502 14.040831,465.59482"
         style="fill:none;fill-rule:evenodd;stroke:#000000;stroke-width:0.80987495px;stroke-linecap:butt;stroke-linejoin:miter;stroke-opacity:1" />
      <path
         id="path37703"
         d="M 10.806482,466.59719 C 11.125779,467.17757 12.802238,469.56179 13.43439,470.60665 C 13.844583,471.28465 13.888201,471.6704 14.242977,472.11021"
         style="fill:none;fill-rule:evenodd;stroke:#000000;stroke-width:0.80987495px;stroke-linecap:butt;stroke-linejoin:miter;stroke-opacity:1" />
      <path
         id="path37705"
         d="M 10.604335,472.61138 C 10.923632,473.19176 12.600092,475.57598 13.232243,476.62084 C 13.642436,477.29884 13.686054,477.68459 14.040831,478.1244"
         style="fill:none;fill-rule:evenodd;stroke:#000000;stroke-width:0.80987495px;stroke-linecap:butt;stroke-linejoin:miter;stroke-opacity:1" />
      <path
         id="path37707"
         d="M 10.806482,478.62558 C 11.125778,479.20596 12.802238,481.59018 13.43439,482.63504 C 13.844583,483.31304 13.888201,483.69879 14.242977,484.1386"
         style="fill:none;fill-rule:evenodd;stroke:#000000;stroke-width:0.80987495px;stroke-linecap:butt;stroke-linejoin:miter;stroke-opacity:1" />
    </g>
    <g
       id="g37709"
       transform="matrix(0.7217399,-0.6921644,0.6921644,0.7217399,-216.33807,455.01851)">
      <path
         inkscape:transform-center-y="-1.588365"
         inkscape:transform-center-x="-1.9633264"
         id="path37711"
         d="M 14.517775,441.7987 L 15.065595,484.2336"
         style="fill:none;fill-rule:evenodd;stroke:#000000;stroke-width:2.5;stroke-linecap:butt;stroke-linejoin:miter;stroke-miterlimit:4;stroke-dasharray:none;stroke-opacity:1" />
      <path
         id="path37713"
         d="M 11.109702,442.5404 C 11.428998,443.12079 13.105459,445.50501 13.73761,446.54987 C 14.147803,447.22787 14.191421,447.61362 14.546197,448.05342"
         style="fill:none;fill-rule:evenodd;stroke:#000000;stroke-width:0.80987495px;stroke-linecap:butt;stroke-linejoin:miter;stroke-opacity:1" />
      <path
         id="path37715"
         d="M 10.806482,448.80519 C 11.125779,449.38557 12.802239,451.7698 13.434391,452.81466 C 13.844584,453.49265 13.888202,453.8784 14.242978,454.3182"
         style="fill:none;fill-rule:evenodd;stroke:#000000;stroke-width:0.80987495px;stroke-linecap:butt;stroke-linejoin:miter;stroke-opacity:1" />
      <path
         id="path37717"
         d="M 10.604335,454.3182 C 10.923632,454.89858 12.600092,457.28281 13.232243,458.32767 C 13.642436,459.00566 13.686054,459.39141 14.040831,459.83121"
         style="fill:none;fill-rule:evenodd;stroke:#000000;stroke-width:0.80987495px;stroke-linecap:butt;stroke-linejoin:miter;stroke-opacity:1" />
      <path
         id="path37719"
         d="M 10.604335,460.08181 C 10.923632,460.66219 12.600092,463.04641 13.232243,464.09127 C 13.642436,464.76927 13.686054,465.15502 14.040831,465.59482"
         style="fill:none;fill-rule:evenodd;stroke:#000000;stroke-width:0.80987495px;stroke-linecap:butt;stroke-linejoin:miter;stroke-opacity:1" />
      <path
         id="path37721"
         d="M 10.806482,466.59719 C 11.125779,467.17757 12.802238,469.56179 13.43439,470.60665 C 13.844583,471.28465 13.888201,471.6704 14.242977,472.11021"
         style="fill:none;fill-rule:evenodd;stroke:#000000;stroke-width:0.80987495px;stroke-linecap:butt;stroke-linejoin:miter;stroke-opacity:1" />
      <path
         id="path37723"
         d="M 10.604335,472.61138 C 10.923632,473.19176 12.600092,475.57598 13.232243,476.62084 C 13.642436,477.29884 13.686054,477.68459 14.040831,478.1244"
         style="fill:none;fill-rule:evenodd;stroke:#000000;stroke-width:0.80987495px;stroke-linecap:butt;stroke-linejoin:miter;stroke-opacity:1" />
      <path
         id="path37725"
         d="M 10.806482,478.62558 C 11.125778,479.20596 12.802238,481.59018 13.43439,482.63504 C 13.844583,483.31304 13.888201,483.69879 14.242977,484.1386"
         style="fill:none;fill-rule:evenodd;stroke:#000000;stroke-width:0.80987495px;stroke-linecap:butt;stroke-linejoin:miter;stroke-opacity:1" />
    </g>
    <g
       id="g37727"
       transform="matrix(0.7406004,0.6719457,-0.6719457,0.7406004,414.46105,377.06631)">
      <path
         inkscape:transform-center-y="-1.588365"
         inkscape:transform-center-x="-1.9633264"
         id="path37729"
         d="M 14.517775,441.7987 L 15.065595,484.2336"
         style="fill:none;fill-rule:evenodd;stroke:#000000;stroke-width:2.5;stroke-linecap:butt;stroke-linejoin:miter;stroke-miterlimit:4;stroke-dasharray:none;stroke-opacity:1" />
      <path
         id="path37731"
         d="M 11.109702,442.5404 C 11.428998,443.12079 13.105459,445.50501 13.73761,446.54987 C 14.147803,447.22787 14.191421,447.61362 14.546197,448.05342"
         style="fill:none;fill-rule:evenodd;stroke:#000000;stroke-width:0.80987495px;stroke-linecap:butt;stroke-linejoin:miter;stroke-opacity:1" />
      <path
         id="path37733"
         d="M 10.806482,448.80519 C 11.125779,449.38557 12.802239,451.7698 13.434391,452.81466 C 13.844584,453.49265 13.888202,453.8784 14.242978,454.3182"
         style="fill:none;fill-rule:evenodd;stroke:#000000;stroke-width:0.80987495px;stroke-linecap:butt;stroke-linejoin:miter;stroke-opacity:1" />
      <path
         id="path37735"
         d="M 10.604335,454.3182 C 10.923632,454.89858 12.600092,457.28281 13.232243,458.32767 C 13.642436,459.00566 13.686054,459.39141 14.040831,459.83121"
         style="fill:none;fill-rule:evenodd;stroke:#000000;stroke-width:0.80987495px;stroke-linecap:butt;stroke-linejoin:miter;stroke-opacity:1" />
      <path
         id="path37737"
         d="M 10.604335,460.08181 C 10.923632,460.66219 12.600092,463.04641 13.232243,464.09127 C 13.642436,464.76927 13.686054,465.15502 14.040831,465.59482"
         style="fill:none;fill-rule:evenodd;stroke:#000000;stroke-width:0.80987495px;stroke-linecap:butt;stroke-linejoin:miter;stroke-opacity:1" />
      <path
         id="path37739"
         d="M 10.806482,466.59719 C 11.125779,467.17757 12.802238,469.56179 13.43439,470.60665 C 13.844583,471.28465 13.888201,471.6704 14.242977,472.11021"
         style="fill:none;fill-rule:evenodd;stroke:#000000;stroke-width:0.80987495px;stroke-linecap:butt;stroke-linejoin:miter;stroke-opacity:1" />
      <path
         id="path37741"
         d="M 10.604335,472.61138 C 10.923632,473.19176 12.600092,475.57598 13.232243,476.62084 C 13.642436,477.29884 13.686054,477.68459 14.040831,478.1244"
         style="fill:none;fill-rule:evenodd;stroke:#000000;stroke-width:0.80987495px;stroke-linecap:butt;stroke-linejoin:miter;stroke-opacity:1" />
      <path
         id="path37743"
         d="M 10.806482,478.62558 C 11.125778,479.20596 12.802238,481.59018 13.43439,482.63504 C 13.844583,483.31304 13.888201,483.69879 14.242977,484.1386"
         style="fill:none;fill-rule:evenodd;stroke:#000000;stroke-width:0.80987495px;stroke-linecap:butt;stroke-linejoin:miter;stroke-opacity:1" />
    </g>
    <path
       style="fill:#ff0000;fill-opacity:1;fill-rule:evenodd;stroke:none;stroke-width:1px;stroke-linecap:butt;stroke-linejoin:miter;stroke-opacity:1"
       d="M 375.25699,748.39087 L 365.29663,748.88162 L 370.98521,740.90945 L 375.25699,748.39087 z "
       id="path39735"
       sodipodi:nodetypes="cccc" />
    <path
       style="fill:#ff0000;fill-opacity:1;fill-rule:evenodd;stroke:none;stroke-width:1px;stroke-linecap:butt;stroke-linejoin:miter;stroke-opacity:1"
       d="M 354.5362,717.73754 L 348.10472,710.11613 L 357.89334,709.80349 L 354.5362,717.73754 z "
       id="path39737"
       sodipodi:nodetypes="cccc" />
    <text
       xml:space="preserve"
       style="font-size:12px;font-style:normal;font-weight:normal;fill:#000000;fill-opacity:1;stroke:none;stroke-width:1px;stroke-linecap:butt;stroke-linejoin:miter;stroke-opacity:1;font-family:Bitstream Vera Sans"
       x="416.09851"
       y="712.95258"
       id="text39753"><tspan
         sodipodi:role="line"
         id="tspan39755"
         x="416.09851"
         y="712.95258">Diffraction</tspan><tspan
         sodipodi:role="line"
         x="416.09851"
         y="727.95258"
         id="tspan39757">grating</tspan></text>
    <g
       id="g5466"
       transform="matrix(-6.5973802e-4,0.9999998,-0.9999998,-6.5973802e-4,656.16618,434.59081)"
       style="stroke-width:2.5;stroke-miterlimit:4;stroke-dasharray:none">
      <rect
         y="337.36218"
         x="205"
         height="20.015049"
         width="19.758942"
         id="rect5468"
         style="fill:none;fill-opacity:1;stroke:#000000;stroke-width:2.5;stroke-linecap:square;stroke-linejoin:bevel;stroke-miterlimit:4;stroke-dasharray:none;stroke-opacity:1" />
      <path
         id="path5470"
         d="M 205,357.36218 L 225,337.36218"
         style="fill:none;fill-rule:evenodd;stroke:#000000;stroke-width:2.5;stroke-linecap:butt;stroke-linejoin:miter;stroke-miterlimit:4;stroke-dasharray:none;stroke-opacity:1" />
    </g>
    <g
       id="g5472"
       transform="matrix(0.9999432,-1.065515e-2,1.065515e-2,0.9999432,61.630238,449.44484)"
       style="stroke-width:2.5;stroke-miterlimit:4;stroke-dasharray:none">
      <path
         d="M 324.52523 134.12457 A 2.8138027 19.696619 0 1 1  318.89762,134.12457 A 2.8138027 19.696619 0 1 1  324.52523 134.12457 z"
         sodipodi:ry="19.696619"
         sodipodi:rx="2.8138027"
         sodipodi:cy="134.12457"
         sodipodi:cx="321.71143"
         id="path5474"
         style="fill:none;fill-opacity:1;stroke:#000000;stroke-width:2.5;stroke-linecap:square;stroke-linejoin:bevel;stroke-miterlimit:4;stroke-dasharray:none;stroke-opacity:1"
         sodipodi:type="arc" />
      <path
         id="path5476"
         d="M 325.63686,134.15931 C 332.47456,133.7756 334.55502,152.19055 335.17803,134.79925 C 334.84492,123.09299 347.76038,119.74943 347.81837,134.87573 C 345.07606,164.58524 334.59467,115.44 353.91384,128.67066"
         style="fill:none;fill-rule:evenodd;stroke:#000000;stroke-width:2.5;stroke-linecap:butt;stroke-linejoin:miter;stroke-miterlimit:4;stroke-dasharray:none;stroke-opacity:1"
         sodipodi:nodetypes="cccc" />
    </g>
    <g
       id="g5478"
       transform="matrix(-6.5973802e-4,0.9999998,-0.9999998,-6.5973802e-4,574.81798,228.55561)">
      <path
         sodipodi:nodetypes="cc"
         id="path5480"
         d="M 295.58462,458.65562 L 295.80027,472.19199"
         style="fill:none;fill-rule:evenodd;stroke:#000000;stroke-width:2.5;stroke-linecap:butt;stroke-linejoin:miter;stroke-miterlimit:4;stroke-dasharray:none;stroke-opacity:1" />
      <path
         sodipodi:nodetypes="cc"
         id="path5482"
         d="M 295.58462,436.14519 L 295.80027,449.12575"
         style="fill:none;fill-rule:evenodd;stroke:#000000;stroke-width:2.5;stroke-linecap:butt;stroke-linejoin:miter;stroke-miterlimit:4;stroke-dasharray:none;stroke-opacity:1" />
    </g>
    <path
       style="fill:none;fill-rule:evenodd;stroke:#ff0000;stroke-width:1px;stroke-linecap:butt;stroke-linejoin:miter;stroke-opacity:1"
       d="M 171.11076,649.83262 L 116.92722,652.21526 L 131.3341,525.01798"
       id="path5488"
       sodipodi:nodetypes="ccc" />
    <path
       style="fill:none;fill-rule:evenodd;stroke:#ff0000;stroke-width:1px;stroke-linecap:butt;stroke-linejoin:miter;stroke-opacity:1"
       d="M 171.95503,650.04182 L 124.0702,659.12486 L 118.94513,460.29565"
       id="path5490"
       sodipodi:nodetypes="ccc" />
    <path
       sodipodi:type="arc"
       style="fill:#ffffff;fill-opacity:1;stroke:#000000;stroke-width:2.5;stroke-linecap:square;stroke-linejoin:bevel;stroke-miterlimit:4;stroke-dasharray:none;stroke-opacity:1"
       id="path5492"
       sodipodi:cx="261.99631"
       sodipodi:cy="347.66095"
       sodipodi:rx="5.002316"
       sodipodi:ry="17.508106"
       d="M 266.99862 347.66095 A 5.002316 17.508106 0 1 1  256.99399,347.66095 A 5.002316 17.508106 0 1 1  266.99862 347.66095 z"
       transform="matrix(3.7833027e-2,0.9992841,-0.9992841,3.7833027e-2,458.92791,270.77716)" />
    <path
       style="fill:none;fill-rule:evenodd;stroke:#ff0000;stroke-width:1px;stroke-linecap:butt;stroke-linejoin:miter;marker-mid:none;marker-end:none;stroke-opacity:1"
       d="M 418.61948,649.58086 L 319.53101,649.55253"
       id="path5494"
       sodipodi:nodetypes="cc" />
    <path
       style="fill:none;fill-rule:evenodd;stroke:#ff0000;stroke-width:1px;stroke-linecap:butt;stroke-linejoin:miter;marker-mid:none;stroke-opacity:1"
       d="M 308.87615,637.94896 L 308.83849,623.05528 L 309.00506,580.8021"
       id="path5496"
       sodipodi:nodetypes="ccc" />
    <path
       style="fill:none;fill-rule:evenodd;stroke:#ff0000;stroke-width:1px;stroke-linecap:butt;stroke-linejoin:miter;stroke-opacity:1"
       d="M 309.00506,580.8021 L 380.71269,581.14968"
       id="path5498" />
    <g
       id="g5500"
       transform="matrix(-6.5973802e-4,0.9999998,-0.9999998,-6.5973802e-4,582.42597,444.39823)">
      <path
         inkscape:transform-center-y="-1.588365"
         inkscape:transform-center-x="-1.9633264"
         id="path5502"
         d="M 14.517775,441.7987 L 15.065595,484.2336"
         style="fill:none;fill-rule:evenodd;stroke:#000000;stroke-width:2.5;stroke-linecap:butt;stroke-linejoin:miter;stroke-miterlimit:4;stroke-dasharray:none;stroke-opacity:1" />
      <path
         id="path5504"
         d="M 11.109702,442.5404 C 11.428998,443.12079 13.105459,445.50501 13.73761,446.54987 C 14.147803,447.22787 14.191421,447.61362 14.546197,448.05342"
         style="fill:none;fill-rule:evenodd;stroke:#000000;stroke-width:0.80987495px;stroke-linecap:butt;stroke-linejoin:miter;stroke-opacity:1" />
      <path
         id="path5506"
         d="M 10.806482,448.80519 C 11.125779,449.38557 12.802239,451.7698 13.434391,452.81466 C 13.844584,453.49265 13.888202,453.8784 14.242978,454.3182"
         style="fill:none;fill-rule:evenodd;stroke:#000000;stroke-width:0.80987495px;stroke-linecap:butt;stroke-linejoin:miter;stroke-opacity:1" />
      <path
         id="path5508"
         d="M 10.604335,454.3182 C 10.923632,454.89858 12.600092,457.28281 13.232243,458.32767 C 13.642436,459.00566 13.686054,459.39141 14.040831,459.83121"
         style="fill:none;fill-rule:evenodd;stroke:#000000;stroke-width:0.80987495px;stroke-linecap:butt;stroke-linejoin:miter;stroke-opacity:1" />
      <path
         id="path5510"
         d="M 10.604335,460.08181 C 10.923632,460.66219 12.600092,463.04641 13.232243,464.09127 C 13.642436,464.76927 13.686054,465.15502 14.040831,465.59482"
         style="fill:none;fill-rule:evenodd;stroke:#000000;stroke-width:0.80987495px;stroke-linecap:butt;stroke-linejoin:miter;stroke-opacity:1" />
      <path
         id="path5512"
         d="M 10.806482,466.59719 C 11.125779,467.17757 12.802238,469.56179 13.43439,470.60665 C 13.844583,471.28465 13.888201,471.6704 14.242977,472.11021"
         style="fill:none;fill-rule:evenodd;stroke:#000000;stroke-width:0.80987495px;stroke-linecap:butt;stroke-linejoin:miter;stroke-opacity:1" />
      <path
         id="path5514"
         d="M 10.604335,472.61138 C 10.923632,473.19176 12.600092,475.57598 13.232243,476.62084 C 13.642436,477.29884 13.686054,477.68459 14.040831,478.1244"
         style="fill:none;fill-rule:evenodd;stroke:#000000;stroke-width:0.80987495px;stroke-linecap:butt;stroke-linejoin:miter;stroke-opacity:1" />
      <path
         id="path5516"
         d="M 10.806482,478.62558 C 11.125778,479.20596 12.802238,481.59018 13.43439,482.63504 C 13.844583,483.31304 13.888201,483.69879 14.242977,484.1386"
         style="fill:none;fill-rule:evenodd;stroke:#000000;stroke-width:0.80987495px;stroke-linecap:butt;stroke-linejoin:miter;stroke-opacity:1" />
    </g>
    <g
       id="g5518"
       transform="matrix(0.7465534,-0.6653256,0.6653256,0.7465534,-199.8755,318.34814)">
      <path
         inkscape:transform-center-y="-1.588365"
         inkscape:transform-center-x="-1.9633264"
         id="path5520"
         d="M 14.517775,441.7987 L 15.065595,484.2336"
         style="fill:none;fill-rule:evenodd;stroke:#000000;stroke-width:2.5;stroke-linecap:butt;stroke-linejoin:miter;stroke-miterlimit:4;stroke-dasharray:none;stroke-opacity:1" />
      <path
         id="path5522"
         d="M 11.109702,442.5404 C 11.428998,443.12079 13.105459,445.50501 13.73761,446.54987 C 14.147803,447.22787 14.191421,447.61362 14.546197,448.05342"
         style="fill:none;fill-rule:evenodd;stroke:#000000;stroke-width:0.80987495px;stroke-linecap:butt;stroke-linejoin:miter;stroke-opacity:1" />
      <path
         id="path5524"
         d="M 10.806482,448.80519 C 11.125779,449.38557 12.802239,451.7698 13.434391,452.81466 C 13.844584,453.49265 13.888202,453.8784 14.242978,454.3182"
         style="fill:none;fill-rule:evenodd;stroke:#000000;stroke-width:0.80987495px;stroke-linecap:butt;stroke-linejoin:miter;stroke-opacity:1" />
      <path
         id="path5526"
         d="M 10.604335,454.3182 C 10.923632,454.89858 12.600092,457.28281 13.232243,458.32767 C 13.642436,459.00566 13.686054,459.39141 14.040831,459.83121"
         style="fill:none;fill-rule:evenodd;stroke:#000000;stroke-width:0.80987495px;stroke-linecap:butt;stroke-linejoin:miter;stroke-opacity:1" />
      <path
         id="path5528"
         d="M 10.604335,460.08181 C 10.923632,460.66219 12.600092,463.04641 13.232243,464.09127 C 13.642436,464.76927 13.686054,465.15502 14.040831,465.59482"
         style="fill:none;fill-rule:evenodd;stroke:#000000;stroke-width:0.80987495px;stroke-linecap:butt;stroke-linejoin:miter;stroke-opacity:1" />
      <path
         id="path5530"
         d="M 10.806482,466.59719 C 11.125779,467.17757 12.802238,469.56179 13.43439,470.60665 C 13.844583,471.28465 13.888201,471.6704 14.242977,472.11021"
         style="fill:none;fill-rule:evenodd;stroke:#000000;stroke-width:0.80987495px;stroke-linecap:butt;stroke-linejoin:miter;stroke-opacity:1" />
      <path
         id="path5532"
         d="M 10.604335,472.61138 C 10.923632,473.19176 12.600092,475.57598 13.232243,476.62084 C 13.642436,477.29884 13.686054,477.68459 14.040831,478.1244"
         style="fill:none;fill-rule:evenodd;stroke:#000000;stroke-width:0.80987495px;stroke-linecap:butt;stroke-linejoin:miter;stroke-opacity:1" />
      <path
         id="path5534"
         d="M 10.806482,478.62558 C 11.125778,479.20596 12.802238,481.59018 13.43439,482.63504 C 13.844583,483.31304 13.888201,483.69879 14.242977,484.1386"
         style="fill:none;fill-rule:evenodd;stroke:#000000;stroke-width:0.80987495px;stroke-linecap:butt;stroke-linejoin:miter;stroke-opacity:1" />
    </g>
    <g
       id="g5536"
       transform="matrix(0.7132015,0.7009591,-0.7009591,0.7132015,621.31442,240.20337)"
       inkscape:transform-center-y="19.0188"
       inkscape:transform-center-x="9.7971197">
      <path
         inkscape:transform-center-y="-1.588365"
         inkscape:transform-center-x="-1.9633264"
         id="path5538"
         d="M 14.517775,441.7987 L 15.065595,484.2336"
         style="fill:none;fill-rule:evenodd;stroke:#000000;stroke-width:2.5;stroke-linecap:butt;stroke-linejoin:miter;stroke-miterlimit:4;stroke-dasharray:none;stroke-opacity:1" />
      <path
         id="path5540"
         d="M 11.109702,442.5404 C 11.428998,443.12079 13.105459,445.50501 13.73761,446.54987 C 14.147803,447.22787 14.191421,447.61362 14.546197,448.05342"
         style="fill:none;fill-rule:evenodd;stroke:#000000;stroke-width:0.80987495px;stroke-linecap:butt;stroke-linejoin:miter;stroke-opacity:1" />
      <path
         id="path5542"
         d="M 10.806482,448.80519 C 11.125779,449.38557 12.802239,451.7698 13.434391,452.81466 C 13.844584,453.49265 13.888202,453.8784 14.242978,454.3182"
         style="fill:none;fill-rule:evenodd;stroke:#000000;stroke-width:0.80987495px;stroke-linecap:butt;stroke-linejoin:miter;stroke-opacity:1" />
      <path
         id="path5544"
         d="M 10.604335,454.3182 C 10.923632,454.89858 12.600092,457.28281 13.232243,458.32767 C 13.642436,459.00566 13.686054,459.39141 14.040831,459.83121"
         style="fill:none;fill-rule:evenodd;stroke:#000000;stroke-width:0.80987495px;stroke-linecap:butt;stroke-linejoin:miter;stroke-opacity:1" />
      <path
         id="path5546"
         d="M 10.604335,460.08181 C 10.923632,460.66219 12.600092,463.04641 13.232243,464.09127 C 13.642436,464.76927 13.686054,465.15502 14.040831,465.59482"
         style="fill:none;fill-rule:evenodd;stroke:#000000;stroke-width:0.80987495px;stroke-linecap:butt;stroke-linejoin:miter;stroke-opacity:1" />
      <path
         id="path5548"
         d="M 10.806482,466.59719 C 11.125779,467.17757 12.802238,469.56179 13.43439,470.60665 C 13.844583,471.28465 13.888201,471.6704 14.242977,472.11021"
         style="fill:none;fill-rule:evenodd;stroke:#000000;stroke-width:0.80987495px;stroke-linecap:butt;stroke-linejoin:miter;stroke-opacity:1" />
      <path
         id="path5550"
         d="M 10.604335,472.61138 C 10.923632,473.19176 12.600092,475.57598 13.232243,476.62084 C 13.642436,477.29884 13.686054,477.68459 14.040831,478.1244"
         style="fill:none;fill-rule:evenodd;stroke:#000000;stroke-width:0.80987495px;stroke-linecap:butt;stroke-linejoin:miter;stroke-opacity:1" />
      <path
         id="path5552"
         d="M 10.806482,478.62558 C 11.125778,479.20596 12.802238,481.59018 13.43439,482.63504 C 13.844583,483.31304 13.888201,483.69879 14.242977,484.1386"
         style="fill:none;fill-rule:evenodd;stroke:#000000;stroke-width:0.80987495px;stroke-linecap:butt;stroke-linejoin:miter;stroke-opacity:1" />
    </g>
    <g
       id="g5554"
       transform="matrix(-0.9717058,0.2361943,-0.2361943,-0.9717058,544.46959,1098.4836)">
      <path
         inkscape:transform-center-y="-1.588365"
         inkscape:transform-center-x="-1.9633264"
         id="path5556"
         d="M 14.517775,441.7987 L 15.065595,484.2336"
         style="fill:none;fill-rule:evenodd;stroke:#000000;stroke-width:2.5;stroke-linecap:butt;stroke-linejoin:miter;stroke-miterlimit:4;stroke-dasharray:none;stroke-opacity:1" />
      <path
         id="path5558"
         d="M 11.109702,442.5404 C 11.428998,443.12079 13.105459,445.50501 13.73761,446.54987 C 14.147803,447.22787 14.191421,447.61362 14.546197,448.05342"
         style="fill:none;fill-rule:evenodd;stroke:#000000;stroke-width:0.80987495px;stroke-linecap:butt;stroke-linejoin:miter;stroke-opacity:1" />
      <path
         id="path5560"
         d="M 10.806482,448.80519 C 11.125779,449.38557 12.802239,451.7698 13.434391,452.81466 C 13.844584,453.49265 13.888202,453.8784 14.242978,454.3182"
         style="fill:none;fill-rule:evenodd;stroke:#000000;stroke-width:0.80987495px;stroke-linecap:butt;stroke-linejoin:miter;stroke-opacity:1" />
      <path
         id="path5562"
         d="M 10.604335,454.3182 C 10.923632,454.89858 12.600092,457.28281 13.232243,458.32767 C 13.642436,459.00566 13.686054,459.39141 14.040831,459.83121"
         style="fill:none;fill-rule:evenodd;stroke:#000000;stroke-width:0.80987495px;stroke-linecap:butt;stroke-linejoin:miter;stroke-opacity:1" />
      <path
         id="path5564"
         d="M 10.604335,460.08181 C 10.923632,460.66219 12.600092,463.04641 13.232243,464.09127 C 13.642436,464.76927 13.686054,465.15502 14.040831,465.59482"
         style="fill:none;fill-rule:evenodd;stroke:#000000;stroke-width:0.80987495px;stroke-linecap:butt;stroke-linejoin:miter;stroke-opacity:1" />
      <path
         id="path5566"
         d="M 10.806482,466.59719 C 11.125779,467.17757 12.802238,469.56179 13.43439,470.60665 C 13.844583,471.28465 13.888201,471.6704 14.242977,472.11021"
         style="fill:none;fill-rule:evenodd;stroke:#000000;stroke-width:0.80987495px;stroke-linecap:butt;stroke-linejoin:miter;stroke-opacity:1" />
      <path
         id="path5568"
         d="M 10.604335,472.61138 C 10.923632,473.19176 12.600092,475.57598 13.232243,476.62084 C 13.642436,477.29884 13.686054,477.68459 14.040831,478.1244"
         style="fill:none;fill-rule:evenodd;stroke:#000000;stroke-width:0.80987495px;stroke-linecap:butt;stroke-linejoin:miter;stroke-opacity:1" />
      <path
         id="path5570"
         d="M 10.806482,478.62558 C 11.125778,479.20596 12.802238,481.59018 13.43439,482.63504 C 13.844583,483.31304 13.888201,483.69879 14.242977,484.1386"
         style="fill:none;fill-rule:evenodd;stroke:#000000;stroke-width:0.80987495px;stroke-linecap:butt;stroke-linejoin:miter;stroke-opacity:1" />
    </g>
    <text
       xml:space="preserve"
       style="font-size:12px;font-style:normal;font-weight:normal;fill:#000000;fill-opacity:1;stroke:none;stroke-width:1px;stroke-linecap:butt;stroke-linejoin:miter;stroke-opacity:1;font-family:Bitstream Vera Sans"
       x="136.06143"
       y="506.48178"
       id="text5572"
       transform="matrix(0.9999946,-3.2815357e-3,3.2815357e-3,0.9999946,0,0)"><tspan
         sodipodi:role="line"
         id="tspan5574"
         x="136.06143"
         y="506.48178">λ/4</tspan></text>
    <text
       xml:space="preserve"
       style="font-size:12px;font-style:normal;font-weight:normal;fill:#000000;fill-opacity:1;stroke:none;stroke-width:1px;stroke-linecap:butt;stroke-linejoin:miter;stroke-opacity:1;font-family:Bitstream Vera Sans"
       x="345.21405"
       y="636.21185"
       id="text5576"
       transform="matrix(0.9999854,-5.3995043e-3,5.3995043e-3,0.9999854,0,0)"><tspan
         sodipodi:role="line"
         id="tspan5578"
         x="345.21405"
         y="636.21185">λ/2</tspan><tspan
         sodipodi:role="line"
         x="345.21405"
         y="651.21185"
         id="tspan5580" /></text>
    <text
       xml:space="preserve"
       style="font-size:12px;font-style:normal;font-weight:normal;fill:#000000;fill-opacity:1;stroke:none;stroke-width:1px;stroke-linecap:butt;stroke-linejoin:miter;stroke-opacity:1;font-family:Bitstream Vera Sans"
       x="62.358631"
       y="571.63062"
       id="text5582"
       transform="matrix(0.9999875,4.9950557e-3,-4.9950557e-3,0.9999875,0,0)"><tspan
         sodipodi:role="line"
         id="tspan5584"
         x="62.358631"
         y="571.63062">1st order</tspan></text>
    <text
       xml:space="preserve"
       style="font-size:12px;font-style:normal;font-weight:normal;fill:#000000;fill-opacity:1;stroke:none;stroke-width:1px;stroke-linecap:butt;stroke-linejoin:miter;stroke-opacity:1;font-family:Bitstream Vera Sans"
       x="120.59412"
       y="575.32751"
       id="text5586"
       transform="matrix(0.9997301,-2.3232707e-2,2.3232707e-2,0.9997301,0,0)"><tspan
         sodipodi:role="line"
         id="tspan5588"
         x="120.59412"
         y="575.32751">0th order</tspan></text>
    <path
       style="fill:#ff0000;fill-opacity:1;fill-rule:evenodd;stroke:none;stroke-width:1px;stroke-linecap:butt;stroke-linejoin:miter;stroke-opacity:1"
       d="M 304.45609,623.37266 L 308.87375,614.43209 L 313.0707,623.28087 L 304.45609,623.37266 z "
       id="path5590"
       sodipodi:nodetypes="cccc" />
    <path
       style="fill:#ff0000;fill-opacity:1;fill-rule:evenodd;stroke:none;stroke-width:1px;stroke-linecap:butt;stroke-linejoin:miter;stroke-opacity:1"
       d="M 123.76923,468.70347 L 119.25069,477.59349 L 115.15413,468.69779 L 123.76923,468.70347 z "
       id="path5592"
       sodipodi:nodetypes="cccc" />
    <path
       style="fill:#ff0000;fill-opacity:1;fill-rule:evenodd;stroke:none;stroke-width:1px;stroke-linecap:butt;stroke-linejoin:miter;stroke-opacity:1"
       d="M 123.96909,488.33546 L 119.46228,479.43948 L 115.35399,488.32978 L 123.96909,488.33546 z "
       id="path5594"
       sodipodi:nodetypes="cccc" />
    <path
       style="fill:#ff0000;fill-opacity:1;fill-rule:evenodd;stroke:none;stroke-width:1px;stroke-linecap:butt;stroke-linejoin:miter;stroke-opacity:1"
       d="M 386.21506,644.68553 L 377.31909,649.19235 L 386.20938,653.30063 L 386.21506,644.68553 z "
       id="path5596"
       sodipodi:nodetypes="cccc" />
    <path
       style="fill:#ff0000;fill-opacity:1;fill-rule:evenodd;stroke:none;stroke-width:1px;stroke-linecap:butt;stroke-linejoin:miter;stroke-opacity:1"
       d="M 248.38834,645.03826 L 239.49236,649.54507 L 248.38265,653.65335 L 248.38834,645.03826 z "
       id="path5598"
       sodipodi:nodetypes="cccc" />
    <path
       style="fill:#ff0000;fill-opacity:1;fill-rule:evenodd;stroke:none;stroke-width:1px;stroke-linecap:butt;stroke-linejoin:miter;stroke-opacity:1"
       d="M 222.62137,644.56413 L 231.51139,649.08267 L 222.61569,653.17922 L 222.62137,644.56413 z "
       id="path5600"
       sodipodi:nodetypes="cccc" />
    <text
       xml:space="preserve"
       style="font-size:11.99999809px;font-style:normal;font-weight:normal;fill:#000000;fill-opacity:1;stroke:none;stroke-width:1px;stroke-linecap:butt;stroke-linejoin:miter;stroke-opacity:1;font-family:Bitstream Vera Sans"
       x="72.384949"
       y="528.89172"
       id="text5602"
       transform="matrix(0.9998744,-1.5845851e-2,1.5845851e-2,0.9998744,0,0)"><tspan
         sodipodi:role="line"
         id="tspan5604"
         x="72.384949"
         y="528.89172">Iris</tspan></text>
    <g
       id="g22952"
       transform="matrix(0.1339856,0.9909832,-0.9909832,0.1339856,550.35825,230.45361)">
      <rect
         y="407.61926"
         x="342.93652"
         height="22.232515"
         width="48.911533"
         id="rect22946"
         style="fill:none;fill-opacity:1;stroke:#000000;stroke-width:2.5;stroke-linecap:square;stroke-linejoin:miter;stroke-miterlimit:4;stroke-dasharray:none;stroke-opacity:1" />
      <text
         id="text22948"
         y="423.18201"
         x="352.94116"
         style="font-size:12px;font-style:normal;font-weight:normal;fill:#000000;fill-opacity:1;stroke:none;stroke-width:1px;stroke-linecap:butt;stroke-linejoin:miter;stroke-opacity:1;font-family:Bitstream Vera Sans"
         xml:space="preserve"><tspan
           y="423.18201"
           x="352.94116"
           id="tspan22950"
           sodipodi:role="line">AOM</tspan></text>
    </g>
    <path
       style="fill:none;fill-rule:evenodd;stroke:#ff0000;stroke-width:1px;stroke-linecap:butt;stroke-linejoin:miter;marker-mid:none;stroke-opacity:1"
       d="M 418.68988,650.4402 L 283.11361,684.54791"
       id="path5610"
       sodipodi:nodetypes="cc" />
    <text
       xml:space="preserve"
       style="font-size:12px;font-style:normal;font-weight:normal;fill:#000000;fill-opacity:1;stroke:none;stroke-width:1px;stroke-linecap:butt;stroke-linejoin:miter;stroke-opacity:1;font-family:Bitstream Vera Sans"
       x="370.0209"
       y="547.56598"
       id="text36525"><tspan
         sodipodi:role="line"
         id="tspan36527"
         x="370.0209"
         y="547.56598">Fibre to experiment</tspan></text>
    <path
       style="fill:#ff0000;fill-opacity:1;fill-rule:evenodd;stroke:none;stroke-width:1px;stroke-linecap:butt;stroke-linejoin:miter;stroke-opacity:1"
       d="M 322.95107,726.42644 L 332.00942,730.59732 L 323.27905,735.03527 L 322.95107,726.42644 z "
       id="path5614"
       sodipodi:nodetypes="cccc" />
    <path
       style="fill:none;fill-rule:evenodd;stroke:#000000;stroke-width:2.5;stroke-linecap:butt;stroke-linejoin:miter;stroke-miterlimit:4;stroke-dasharray:none;stroke-opacity:1"
       d="M 131.97343,501.99024 C 123.6401,501.98474 115.30677,501.97924 106.97344,501.97374"
       id="path5484" />
    <path
       style="fill:none;fill-rule:evenodd;stroke:#ff0000;stroke-width:1px;stroke-linecap:butt;stroke-linejoin:miter;marker-mid:none;marker-end:none;stroke-opacity:1"
       d="M 298.04422,649.37637 L 196.95575,649.34804"
       id="path3739"
       sodipodi:nodetypes="cc" />
    <path
       sodipodi:type="arc"
       style="fill:#ffffff;fill-opacity:1;stroke:#000000;stroke-width:2.5;stroke-linecap:square;stroke-linejoin:bevel;stroke-miterlimit:4;stroke-dasharray:none;stroke-opacity:1"
       id="path5640"
       sodipodi:cx="261.99631"
       sodipodi:cy="347.66095"
       sodipodi:rx="5.002316"
       sodipodi:ry="17.508106"
       d="M 266.99862 347.66095 A 5.002316 17.508106 0 1 1  256.99399,347.66095 A 5.002316 17.508106 0 1 1  266.99862 347.66095 z"
       transform="matrix(0.9999998,6.5973802e-4,-6.5973802e-4,0.9999998,1.3778443,301.4776)" />
    <path
       style="fill:none;fill-rule:evenodd;stroke:#000000;stroke-width:2.5;stroke-linecap:butt;stroke-linejoin:miter;stroke-miterlimit:4;stroke-dasharray:none;stroke-opacity:1"
       d="M 357.09105,662.66759 C 357.13222,654.33435 357.1734,646.00113 357.21458,637.66789"
       id="path5486" />
    <path
       style="fill:#ff0000;fill-opacity:1;fill-rule:evenodd;stroke:none;stroke-width:1px;stroke-linecap:butt;stroke-linejoin:miter;stroke-opacity:1"
       d="M 132.13548,773.80465 L 123.23951,778.31147 L 132.1298,782.41975 L 132.13548,773.80465 z "
       id="path3741"
       sodipodi:nodetypes="cccc" />
    <g
       id="g2946"
       transform="matrix(0.8688717,0.4950374,-0.4950374,0.8688717,530.30324,51.561878)">
      <g
         id="g3409"
         transform="matrix(0.509876,-0.8602479,-0.8602479,-0.509876,623.09123,1232.1448)"
         inkscape:transform-center-y="26.360922"
         inkscape:transform-center-x="-2.0334453e-05">
        <path
           style="fill:none;fill-rule:evenodd;stroke:#000000;stroke-width:1px;stroke-linecap:butt;stroke-linejoin:miter;stroke-opacity:1"
           d="M 291.55484,612.90687 L 304.43365,665.09677"
           id="path2930"
           sodipodi:nodetypes="cc" />
        <path
           style="fill:none;fill-rule:evenodd;stroke:#000000;stroke-width:1px;stroke-linecap:butt;stroke-linejoin:miter;stroke-opacity:1"
           d="M 291.55483,613.13776 L 288.21429,616.82646 L 294.28571,624.86218"
           id="path2932"
           sodipodi:nodetypes="ccc" />
        <path
           style="fill:none;fill-rule:evenodd;stroke:#000000;stroke-width:1px;stroke-linecap:butt;stroke-linejoin:miter;stroke-opacity:1"
           d="M 293.92857,624.1479 L 290.71429,627.18361 L 296.78571,634.86218"
           id="path2938"
           sodipodi:nodetypes="ccc" />
        <path
           style="fill:none;fill-rule:evenodd;stroke:#000000;stroke-width:1px;stroke-linecap:butt;stroke-linejoin:miter;stroke-opacity:1"
           d="M 296.32397,634.54837 L 293.39286,637.8979 L 298.92857,644.50504"
           id="path2940"
           sodipodi:nodetypes="ccc" />
        <path
           style="fill:none;fill-rule:evenodd;stroke:#000000;stroke-width:1px;stroke-linecap:butt;stroke-linejoin:miter;stroke-opacity:1"
           d="M 298.8023,644.37877 L 295.89286,647.36218 L 301.78571,655.21932"
           id="path2942"
           sodipodi:nodetypes="ccc" />
        <path
           style="fill:none;fill-rule:evenodd;stroke:#000000;stroke-width:1px;stroke-linecap:butt;stroke-linejoin:miter;stroke-opacity:1"
           d="M 301.42857,654.50504 L 298.03572,657.1836 L 304.28571,664.71424"
           id="path2944"
           sodipodi:nodetypes="ccc" />
      </g>
    </g>
  </g>
</svg>
