<?xml version="1.0" encoding="UTF-8" standalone="no"?>
<svg
   xmlns:dc="http://purl.org/dc/elements/1.1/"
   xmlns:cc="http://web.resource.org/cc/"
   xmlns:rdf="http://www.w3.org/1999/02/22-rdf-syntax-ns#"
   xmlns:svg="http://www.w3.org/2000/svg"
   xmlns="http://www.w3.org/2000/svg"
   xmlns:sodipodi="http://sodipodi.sourceforge.net/DTD/sodipodi-0.dtd"
   xmlns:inkscape="http://www.inkscape.org/namespaces/inkscape"
   width="800.000"
   height="600.000"
   viewBox="0.0 0.0 800.000 600.000"
   id="svg6427"
   sodipodi:version="0.32"
   inkscape:version="0.45"
   sodipodi:docname="oven_scheme.eps"
   sodipodi:docbase="/home/imreh/short/Greg/thesis/chapter4/oven"
   inkscape:output_extension="org.inkscape.output.eps"
   inkscape:dataloss="true">
  <metadata
     id="metadata7502">
    <rdf:RDF>
      <cc:Work
         rdf:about="">
        <dc:format>image/svg+xml</dc:format>
        <dc:type
           rdf:resource="http://purl.org/dc/dcmitype/StillImage" />
      </cc:Work>
    </rdf:RDF>
  </metadata>
  <defs
     id="defs7500">
    <marker
       inkscape:stockid="TriangleInL"
       orient="auto"
       refY="0.0"
       refX="0.0"
       id="TriangleInL"
       style="overflow:visible">
      <path
         id="path4942"
         d="M 5.77,0.0 L -2.88,5.0 L -2.88,-5.0 L 5.77,0.0 z "
         style="fill-rule:evenodd;stroke:#000000;stroke-width:1.0pt;marker-start:none"
         transform="scale(-0.8)" />
    </marker>
    <marker
       inkscape:stockid="TriangleOutL"
       orient="auto"
       refY="0.0"
       refX="0.0"
       id="TriangleOutL"
       style="overflow:visible">
      <path
         id="path4933"
         d="M 5.77,0.0 L -2.88,5.0 L -2.88,-5.0 L 5.77,0.0 z "
         style="fill-rule:evenodd;stroke:#000000;stroke-width:1.0pt;marker-start:none"
         transform="scale(0.8)" />
    </marker>
    <marker
       inkscape:stockid="TriangleInM"
       orient="auto"
       refY="0.0"
       refX="0.0"
       id="TriangleInM"
       style="overflow:visible">
      <path
         id="path4939"
         d="M 5.77,0.0 L -2.88,5.0 L -2.88,-5.0 L 5.77,0.0 z "
         style="fill-rule:evenodd;stroke:#000000;stroke-width:1.0pt;marker-start:none"
         transform="scale(-0.4)" />
    </marker>
  </defs>
  <sodipodi:namedview
     inkscape:window-height="969"
     inkscape:window-width="1280"
     inkscape:pageshadow="2"
     inkscape:pageopacity="0.0"
     guidetolerance="10.0"
     gridtolerance="10.0"
     objecttolerance="10.0"
     borderopacity="1.0"
     bordercolor="#666666"
     pagecolor="#ffffff"
     id="base"
     showgrid="false"
     inkscape:zoom="1.2633333"
     inkscape:cx="391.44127"
     inkscape:cy="468.25407"
     inkscape:window-x="0"
     inkscape:window-y="24"
     inkscape:current-layer="svg6427" />
  <title
     id="title6429">CADConverter convert result</title>
  <desc
     id="desc6431">CADConverter convert result</desc>
  <path
     d="M 533.65,52.45 L 533.75,52.48 M 533.75,52.48 L 533.84,52.46 M 533.84,52.46 L 533.93,52.38 M 533.93,52.38 L 533.99,52.27 M 533.99,52.27 L 534.01,52.14 M 534.01,52.14 L 533.99,52 M 533.99,52 L 533.94,51.89 M 533.94,51.89 L 533.85,51.81 M 533.85,51.81 L 533.75,51.78 M 533.75,51.78 L 533.64,51.8 M 533.64,51.8 L 533.55,51.87 M 533.55,51.87 L 533.49,51.99 M 533.49,51.99 L 533.47,52.11 M 533.47,52.11 L 533.49,52.25 M 533.49,52.25 L 533.55,52.37 M 533.55,52.37 L 533.65,52.45"
     id="path6435"
     style="fill:none;stroke:#000000;stroke-width:1;stroke-miterlimit:4;stroke-dasharray:none;stroke-opacity:1" />
  <path
     d="M 522.04,77.03 L 522.15,77.06 M 522.15,77.06 L 522.26,77.04 M 522.26,77.04 L 522.37,76.97 M 522.37,76.97 L 522.46,76.86 M 522.46,76.86 L 522.51,76.73 M 522.51,76.73 L 522.52,76.6 M 522.52,76.6 L 522.47,76.5 M 522.47,76.5 L 522.39,76.42 M 522.39,76.42 L 522.28,76.38 M 522.28,76.38 L 522.17,76.41 M 522.17,76.41 L 522.05,76.48 M 522.05,76.48 L 521.96,76.57 M 521.96,76.57 L 521.91,76.7 M 521.91,76.7 L 521.91,76.83 M 521.91,76.83 L 521.96,76.95 M 521.96,76.95 L 522.04,77.03"
     id="path6437"
     style="fill:none;stroke:#000000;stroke-width:1;stroke-miterlimit:4;stroke-dasharray:none;stroke-opacity:1" />
  <path
     d="M 516.05,67.06 L 516.11,66.86 M 516.11,66.86 L 516.13,66.66"
     id="path6443"
     style="fill:none;stroke:#000000;stroke-width:1;stroke-miterlimit:4;stroke-dasharray:none;stroke-opacity:1" />
  <path
     d="M 524.82,38.79 L 522.41,37.4"
     id="path6447"
     style="fill:none;stroke:#000000;stroke-width:1;stroke-miterlimit:4;stroke-dasharray:none;stroke-opacity:1" />
  <path
     d="M 551.83,66.52 L 516.91292,46.321709"
     id="path6449"
     style="fill:none;stroke:#000000;stroke-width:1;stroke-miterlimit:4;stroke-dasharray:none;stroke-opacity:1"
     sodipodi:nodetypes="cc" />
  <path
     d="M 557.08,57.42 L 552.67,54.88"
     id="path6453"
     style="fill:none;stroke:#000000;stroke-width:1;stroke-miterlimit:4;stroke-dasharray:none;stroke-opacity:1" />
  <path
     d="M 553.28668,55.164116 L 523.85327,38.20533"
     id="path6455"
     style="fill:none;stroke:#000000;stroke-width:1;stroke-miterlimit:4;stroke-dasharray:none;stroke-opacity:1"
     sodipodi:nodetypes="cc" />
  <path
     d="M 510.86,64.05 L 510.15,63.64"
     id="path6457"
     style="fill:none;stroke:#000000;stroke-width:1;stroke-miterlimit:4;stroke-dasharray:none;stroke-opacity:1" />
  <path
     d="M 539.57,92.76 L 504.9,72.75"
     id="path6459"
     style="fill:none;stroke:#000000;stroke-width:1;stroke-miterlimit:4;stroke-dasharray:none;stroke-opacity:1" />
  <path
     d="M 466.56,180.86 L 466.56,202.65"
     id="path6463"
     style="fill:none;stroke:#000000;stroke-width:1;stroke-miterlimit:4;stroke-dasharray:none;stroke-opacity:1" />
  <path
     d="M 584.89,180.86 L 584.89,202.65"
     id="path6465"
     style="fill:none;stroke:#000000;stroke-width:1;stroke-miterlimit:4;stroke-dasharray:none;stroke-opacity:1" />
  <path
     d="M 535.77,236.31 L 535.77,260.58"
     id="path6467"
     style="fill:none;stroke:#000000;stroke-width:1;stroke-miterlimit:4;stroke-dasharray:none;stroke-opacity:1" />
  <path
     d="M 540.22,235.76 L 540.22,260.58"
     id="path6469"
     style="fill:none;stroke:#000000;stroke-width:1;stroke-miterlimit:4;stroke-dasharray:none;stroke-opacity:1" />
  <path
     d="M 535.77,175.46 L 535.77,187.94"
     id="path6471"
     style="fill:none;stroke:#000000;stroke-width:1;stroke-miterlimit:4;stroke-dasharray:none;stroke-opacity:1" />
  <path
     d="M 540.22,175.46 L 540.22,187.94"
     id="path6473"
     style="fill:none;stroke:#000000;stroke-width:1;stroke-miterlimit:4;stroke-dasharray:none;stroke-opacity:1" />
  <path
     d="M 511.23,235.76 L 511.23,260.58"
     id="path6475"
     style="fill:none;stroke:#000000;stroke-width:1;stroke-miterlimit:4;stroke-dasharray:none;stroke-opacity:1" />
  <path
     d="M 515.68,236.31 L 515.68,260.58"
     id="path6477"
     style="fill:none;stroke:#000000;stroke-width:1;stroke-miterlimit:4;stroke-dasharray:none;stroke-opacity:1" />
  <path
     d="M 511.23,152.62 L 511.23,187.94"
     id="path6479"
     style="fill:none;stroke:#000000;stroke-width:1;stroke-miterlimit:4;stroke-dasharray:none;stroke-opacity:1" />
  <path
     d="M 515.68,152.62 L 515.68,187.94"
     id="path6481"
     style="fill:none;stroke:#000000;stroke-width:1;stroke-miterlimit:4;stroke-dasharray:none;stroke-opacity:1" />
  <path
     d="M 517.21,63.18 L 524.42,50.69"
     id="path6483"
     style="fill:none;stroke:#000000;stroke-width:1;stroke-miterlimit:4;stroke-dasharray:none;stroke-opacity:1" />
  <path
     d="M 529.67,41.59 L 530.89,39.48"
     id="path6485"
     style="fill:none;stroke:#000000;stroke-width:1;stroke-miterlimit:4;stroke-dasharray:none;stroke-opacity:1" />
  <path
     d="M 512.36,60.37 L 519.56,47.89"
     id="path6487"
     style="fill:none;stroke:#000000;stroke-width:1;stroke-miterlimit:4;stroke-dasharray:none;stroke-opacity:1" />
  <path
     d="M 524.81,38.79 L 526.04,36.68"
     id="path6489"
     style="fill:none;stroke:#000000;stroke-width:1;stroke-miterlimit:4;stroke-dasharray:none;stroke-opacity:1" />
  <path
     d="M 512.45227,60.277732 L 512.17258,60.683118 M 512.17258,60.683118 L 511.91998,61.103246 M 511.91998,61.103246 L 511.69442,61.530745 M 511.69442,61.530745 L 511.48692,61.950873 M 511.48692,61.950873 L 511.30648,62.385743 M 511.30648,62.385743 L 511.1531,62.820612 M 511.1531,62.820612 L 511.0268,63.248111 M 511.0268,63.248111 L 510.92755,63.68298"
     id="path6491"
     style="fill:none;stroke:#000000;stroke-width:1;stroke-miterlimit:4;stroke-dasharray:none;stroke-opacity:1" />
  <path
     d="M 516.13,66.66 L 516.14,66.49 M 516.14,66.49 L 516.15,66.3 M 516.15,66.3 L 516.17,66.11 M 516.17,66.11 L 516.19,65.91 M 516.19,65.91 L 516.23,65.7 M 516.23,65.7 L 516.28,65.48 M 516.28,65.48 L 516.34,65.26 M 516.34,65.26 L 516.4,65.03 M 516.4,65.03 L 516.47,64.8 M 516.47,64.8 L 516.55,64.57 M 516.55,64.57 L 516.64,64.33 M 516.64,64.33 L 516.74,64.1 M 516.74,64.1 L 516.85,63.87 M 516.85,63.87 L 516.96,63.63 M 516.96,63.63 L 517.08,63.4 M 517.08,63.4 L 517.21,63.18"
     id="path6493"
     style="fill:none;stroke:#000000;stroke-width:1;stroke-miterlimit:4;stroke-dasharray:none;stroke-opacity:1" />
  <path
     d="M 516.21,120.6 L 516.15,79.24"
     id="path6495"
     style="fill:none;stroke:#000000;stroke-width:1;stroke-miterlimit:4;stroke-dasharray:none;stroke-opacity:1" />
  <path
     d="M 516.13,67.1 L 516.13,66.66"
     id="path6497"
     style="fill:none;stroke:#000000;stroke-width:1;stroke-miterlimit:4;stroke-dasharray:none;stroke-opacity:1" />
  <path
     d="M 510.6,120.32 L 510.54,76"
     id="path6499"
     style="fill:none;stroke:#000000;stroke-width:1;stroke-miterlimit:4;stroke-dasharray:none;stroke-opacity:1" />
  <path
     d="M 540.8,134.46 L 540.8,92.99"
     id="path6501"
     style="fill:none;stroke:#000000;stroke-width:1;stroke-miterlimit:4;stroke-dasharray:none;stroke-opacity:1" />
  <path
     d="M 540.8,81.415466 L 540.8,74.750286"
     id="path6503"
     style="fill:none;stroke:#000000;stroke-width:0.92144865;stroke-miterlimit:4;stroke-dasharray:none;stroke-opacity:1" />
  <path
     d="M 535.19,134.46 L 535.19,90.24"
     id="path6505"
     style="fill:none;stroke:#000000;stroke-width:1;stroke-miterlimit:4;stroke-dasharray:none;stroke-opacity:1" />
  <path
     d="M 535.19,78.158448 L 535.19,73.402157"
     id="path6507"
     style="fill:none;stroke:#000000;stroke-width:0.90791738;stroke-miterlimit:4;stroke-dasharray:none;stroke-opacity:1" />
  <path
     d="M 540.93,75.01 L 540.91,75.05 M 540.91,75.05 L 540.89,75.11 M 540.89,75.11 L 540.87,75.18 M 540.87,75.18 L 540.84,75.28 M 540.84,75.28 L 540.83,75.4 M 540.83,75.4 L 540.81,75.52 M 540.81,75.52 L 540.8,75.67 M 540.8,75.67 L 540.8,75.83"
     id="path6509"
     style="fill:none;stroke:#000000;stroke-width:1;stroke-miterlimit:4;stroke-dasharray:none;stroke-opacity:1" />
  <path
     d="M 547.86533,64.674491 L 537.30416,71.20052 M 537.30416,71.20052 L 536.94889,71.448988 M 536.94889,71.448988 L 536.61515,71.72112 M 536.61515,71.72112 L 536.29217,72.016916 M 536.29217,72.016916 L 536.0015,72.336375 M 536.0015,72.336375 L 535.73235,72.667665 M 535.73235,72.667665 L 535.48474,73.034452 M 535.48474,73.034452 L 535.25865,73.401238 M 535.25865,73.401238 L 535.06487,73.779856"
     id="path6511"
     style="fill:none;stroke:#000000;stroke-width:1;stroke-miterlimit:4;stroke-dasharray:none;stroke-opacity:1"
     sodipodi:nodetypes="cccccccccccccccccc" />
  <path
     d="M 550.09,69.79 L 540.84,75.05"
     id="path6513"
     style="fill:none;stroke:#000000;stroke-width:1;stroke-miterlimit:4;stroke-dasharray:none;stroke-opacity:1" />
  <path
     d="M 552.54,66.75 L 552.37,67.2 M 552.37,67.2 L 552.16,67.63 M 552.16,67.63 L 551.91,68.05 M 551.91,68.05 L 551.62,68.46 M 551.62,68.46 L 551.29,68.84 M 551.29,68.84 L 550.92,69.19 M 550.92,69.19 L 550.52,69.51 M 550.52,69.51 L 550.09,69.79"
     id="path6517"
     style="fill:none;stroke:#000000;stroke-width:1;stroke-miterlimit:4;stroke-dasharray:none;stroke-opacity:1" />
  <path
     d="M 521.87,120.29 L 521.87,156.61"
     id="path6519"
     style="fill:none;stroke:#000000;stroke-width:1;stroke-miterlimit:4;stroke-dasharray:none;stroke-opacity:1" />
  <path
     d="M 546.4,134.46 L 546.4,120.29"
     id="path6521"
     style="fill:none;stroke:#000000;stroke-width:1;stroke-miterlimit:4;stroke-dasharray:none;stroke-opacity:1" />
  <path
     d="M 529.58,134.46 L 529.58,120.29"
     id="path6523"
     style="fill:none;stroke:#000000;stroke-width:1;stroke-miterlimit:4;stroke-dasharray:none;stroke-opacity:1" />
  <path
     d="M 552.95,48.63 L 552.96,55.04"
     id="path6525"
     style="fill:none;stroke:#000000;stroke-width:1;stroke-miterlimit:4;stroke-dasharray:none;stroke-opacity:1" />
  <path
     d="M 505.06,120.29 L 505.06,156.61"
     id="path6527"
     style="fill:none;stroke:#000000;stroke-width:1;stroke-miterlimit:4;stroke-dasharray:none;stroke-opacity:1" />
  <path
     d="M 547.35,48.63 L 547.35,51.67372"
     id="path6529"
     style="fill:none;stroke:#000000;stroke-width:1;stroke-miterlimit:4;stroke-dasharray:none;stroke-opacity:1"
     sodipodi:nodetypes="cc" />
  <path
     d="M 547.36,63.95 L 547.36,64.14"
     id="path6531"
     style="fill:none;stroke:#000000;stroke-width:1;stroke-miterlimit:4;stroke-dasharray:none;stroke-opacity:1" />
  <path
     d="M 529.58,134.46 L 529.58,170.78"
     id="path6533"
     style="fill:none;stroke:#000000;stroke-width:1;stroke-miterlimit:4;stroke-dasharray:none;stroke-opacity:1" />
  <path
     d="M 546.4,134.46 L 546.4,170.78"
     id="path6535"
     style="fill:none;stroke:#000000;stroke-width:1;stroke-miterlimit:4;stroke-dasharray:none;stroke-opacity:1" />
  <path
     d="M 551.83,66.52 L 551.61,66.37 M 551.61,66.37 L 551.41,66.19 M 551.41,66.19 L 551.24,65.97 M 551.24,65.97 L 551.09,65.73 M 551.09,65.73 L 550.97,65.46 M 550.97,65.46 L 550.87,65.15 M 550.87,65.15 L 550.8,64.83 M 550.8,64.83 L 550.76,64.48 M 550.76,64.48 L 550.74,64.12 M 550.74,64.12 L 550.76,63.74 M 550.76,63.74 L 550.8,63.34 M 550.8,63.34 L 550.87,62.94 M 550.87,62.94 L 550.97,62.52 M 550.97,62.52 L 551.09,62.11 M 551.09,62.11 L 551.24,61.69 M 551.24,61.69 L 551.42,61.27 M 551.42,61.27 L 551.61,60.86 M 551.61,60.86 L 551.83,60.46 M 551.83,60.46 L 552.07,60.07 M 552.07,60.07 L 552.33,59.69 M 552.33,59.69 L 552.6,59.34 M 552.6,59.34 L 552.89,59 M 552.89,59 L 553.19,58.68 M 553.19,58.68 L 553.5,58.39 M 553.5,58.39 L 553.81,58.13 M 553.81,58.13 L 554.13,57.89 M 554.13,57.89 L 554.46,57.69 M 554.46,57.69 L 554.78,57.52 M 554.78,57.52 L 555.1,57.38 M 555.1,57.38 L 555.42,57.28 M 555.42,57.28 L 555.72,57.21 M 555.72,57.21 L 556.02,57.18 M 556.02,57.18 L 556.31,57.19 M 556.31,57.19 L 556.58,57.23 M 556.58,57.23 L 556.84,57.31 M 556.84,57.31 L 557.08,57.43 M 557.08,57.43 L 557.3,57.58 M 557.3,57.58 L 557.49,57.76 M 557.49,57.76 L 557.67,57.97 M 557.67,57.97 L 557.82,58.22 M 557.82,58.22 L 557.94,58.49 M 557.94,58.49 L 558.04,58.79 M 558.04,58.79 L 558.11,59.12 M 558.11,59.12 L 558.15,59.47 M 558.15,59.47 L 558.16,59.83 M 558.16,59.83 L 558.15,60.21 M 558.15,60.21 L 558.11,60.61 M 558.11,60.61 L 558.04,61.01 M 558.04,61.01 L 557.94,61.43 M 557.94,61.43 L 557.82,61.84 M 557.82,61.84 L 557.67,62.26 M 557.67,62.26 L 557.49,62.68 M 557.49,62.68 L 557.3,63.09 M 557.3,63.09 L 557.08,63.49 M 557.08,63.49 L 556.84,63.88 M 556.84,63.88 L 556.58,64.25 M 556.58,64.25 L 556.31,64.61 M 556.31,64.61 L 556.02,64.95 M 556.02,64.95 L 555.72,65.27 M 555.72,65.27 L 555.41,65.56 M 555.41,65.56 L 555.1,65.82 M 555.1,65.82 L 554.78,66.06 M 554.78,66.06 L 554.45,66.26 M 554.45,66.26 L 554.13,66.43 M 554.13,66.43 L 553.81,66.57 M 553.81,66.57 L 553.49,66.67 M 553.49,66.67 L 553.18,66.73 M 553.18,66.73 L 552.88,66.76 M 552.88,66.76 L 552.6,66.76 M 552.6,66.76 L 552.32,66.71 M 552.32,66.71 L 552.07,66.64 M 552.07,66.64 L 551.83,66.52"
     id="path6537"
     style="fill:none;stroke:#000000;stroke-width:1;stroke-miterlimit:4;stroke-dasharray:none;stroke-opacity:1" />
  <path
     d="M 539.57,92.76 L 539.35,92.61 M 539.35,92.61 L 539.16,92.43 M 539.16,92.43 L 538.98,92.21 M 538.98,92.21 L 538.83,91.97 M 538.83,91.97 L 538.71,91.7 M 538.71,91.7 L 538.61,91.39 M 538.61,91.39 L 538.54,91.07 M 538.54,91.07 L 538.5,90.72 M 538.5,90.72 L 538.49,90.36 M 538.49,90.36 L 538.5,89.98 M 538.5,89.98 L 538.54,89.58 M 538.54,89.58 L 538.61,89.18 M 538.61,89.18 L 538.71,88.76 M 538.71,88.76 L 538.84,88.35 M 538.84,88.35 L 538.99,87.93 M 538.99,87.93 L 539.16,87.51 M 539.16,87.51 L 539.36,87.1 M 539.36,87.1 L 539.58,86.7 M 539.58,86.7 L 539.81,86.31 M 539.81,86.31 L 540.07,85.93 M 540.07,85.93 L 540.34,85.58 M 540.34,85.58 L 540.63,85.24 M 540.63,85.24 L 540.93,84.92 M 540.93,84.92 L 541.24,84.63 M 541.24,84.63 L 541.55,84.37 M 541.55,84.37 L 541.88,84.13 M 541.88,84.13 L 542.2,83.93 M 542.2,83.93 L 542.52,83.76 M 542.52,83.76 L 542.84,83.62 M 542.84,83.62 L 543.16,83.52 M 543.16,83.52 L 543.47,83.45 M 543.47,83.45 L 543.77,83.42 M 543.77,83.42 L 544.05,83.43 M 544.05,83.43 L 544.33,83.47 M 544.33,83.47 L 544.58,83.55 M 544.58,83.55 L 544.82,83.67 M 544.82,83.67 L 545.04,83.82 M 545.04,83.82 L 545.24,84 M 545.24,84 L 545.41,84.22 M 545.41,84.22 L 545.56,84.46 M 545.56,84.46 L 545.68,84.73 M 545.68,84.73 L 545.78,85.03 M 545.78,85.03 L 545.85,85.36 M 545.85,85.36 L 545.89,85.71 M 545.89,85.71 L 545.91,86.07 M 545.91,86.07 L 545.89,86.45 M 545.89,86.45 L 545.85,86.85 M 545.85,86.85 L 545.78,87.25 M 545.78,87.25 L 545.68,87.67 M 545.68,87.67 L 545.56,88.08 M 545.56,88.08 L 545.41,88.5 M 545.41,88.5 L 545.24,88.92 M 545.24,88.92 L 545.04,89.33 M 545.04,89.33 L 544.82,89.73 M 544.82,89.73 L 544.58,90.12 M 544.58,90.12 L 544.32,90.49 M 544.32,90.49 L 544.05,90.85 M 544.05,90.85 L 543.76,91.19 M 543.76,91.19 L 543.47,91.51 M 543.47,91.51 L 543.16,91.8 M 543.16,91.8 L 542.84,92.06 M 542.84,92.06 L 542.52,92.3 M 542.52,92.3 L 542.2,92.5 M 542.2,92.5 L 541.87,92.67 M 541.87,92.67 L 541.55,92.81 M 541.55,92.81 L 541.24,92.91 M 541.24,92.91 L 540.93,92.97 M 540.93,92.97 L 540.63,93 M 540.63,93 L 540.34,93 M 540.34,93 L 540.07,92.95 M 540.07,92.95 L 539.81,92.88 M 539.81,92.88 L 539.57,92.76"
     id="path6539"
     style="fill:none;stroke:#000000;stroke-width:1;stroke-miterlimit:4;stroke-dasharray:none;stroke-opacity:1" />
  <path
     d="M 539.1,261.69 L 538.84,261.76 M 538.84,261.76 L 538.56,261.82 M 538.56,261.82 L 538.28,261.85 M 538.28,261.85 L 537.99,261.86 M 537.99,261.86 L 537.7,261.85 M 537.7,261.85 L 537.41,261.82 M 537.41,261.82 L 537.14,261.76 M 537.14,261.76 L 536.88,261.69 M 536.88,261.69 L 536.64,261.6 M 536.64,261.6 L 536.42,261.49 M 536.42,261.49 L 536.23,261.36 M 536.23,261.36 L 536.07,261.22 M 536.07,261.22 L 535.94,261.07 M 535.94,261.07 L 535.84,260.91 M 535.84,260.91 L 535.79,260.75 M 535.79,260.75 L 535.77,260.58"
     id="path6541"
     style="fill:none;stroke:#000000;stroke-width:1;stroke-miterlimit:4;stroke-dasharray:none;stroke-opacity:1" />
  <path
     d="M 540.21,260.58 L 540.19,260.75 M 540.19,260.75 L 540.14,260.91 M 540.14,260.91 L 540.04,261.07 M 540.04,261.07 L 539.91,261.22 M 539.91,261.22 L 539.75,261.36 M 539.75,261.36 L 539.56,261.49 M 539.56,261.49 L 539.34,261.6 M 539.34,261.6 L 539.1,261.69"
     id="path6543"
     style="fill:none;stroke:#000000;stroke-width:1;stroke-miterlimit:4;stroke-dasharray:none;stroke-opacity:1" />
  <path
     d="M 515.68,152.62 L 515.66,152.79 M 515.66,152.79 L 515.6,152.95 M 515.6,152.95 L 515.51,153.12 M 515.51,153.12 L 515.37,153.27 M 515.37,153.27 L 515.21,153.41 M 515.21,153.41 L 515.01,153.54 M 515.01,153.54 L 514.78,153.65 M 514.78,153.65 L 514.53,153.74 M 514.53,153.74 L 514.26,153.81 M 514.26,153.81 L 513.98,153.86 M 513.98,153.86 L 513.68,153.89 M 513.68,153.89 L 513.39,153.89 M 513.39,153.89 L 513.09,153.88 M 513.09,153.88 L 512.8,153.84 M 512.8,153.84 L 512.53,153.78 M 512.53,153.78 L 512.27,153.69 M 512.27,153.69 L 512.03,153.59 M 512.03,153.59 L 511.81,153.47 M 511.81,153.47 L 511.63,153.34 M 511.63,153.34 L 511.48,153.19 M 511.48,153.19 L 511.36,153.04 M 511.36,153.04 L 511.29,152.87 M 511.29,152.87 L 511.25,152.7 M 511.25,152.7 L 511.25,152.53 M 511.25,152.53 L 511.29,152.36 M 511.29,152.36 L 511.36,152.2 M 511.36,152.2 L 511.48,152.04 M 511.48,152.04 L 511.63,151.89 M 511.63,151.89 L 511.81,151.76 M 511.81,151.76 L 512.03,151.64 M 512.03,151.64 L 512.27,151.54 M 512.27,151.54 L 512.53,151.46 M 512.53,151.46 L 512.8,151.4 M 512.8,151.4 L 513.09,151.36 M 513.09,151.36 L 513.39,151.34 M 513.39,151.34 L 513.68,151.34 M 513.68,151.34 L 513.98,151.37 M 513.98,151.37 L 514.26,151.42 M 514.26,151.42 L 514.53,151.5 M 514.53,151.5 L 514.78,151.59 M 514.78,151.59 L 515.01,151.7 M 515.01,151.7 L 515.21,151.82 M 515.21,151.82 L 515.37,151.97 M 515.37,151.97 L 515.51,152.12 M 515.51,152.12 L 515.6,152.28 M 515.6,152.28 L 515.66,152.45 M 515.66,152.45 L 515.68,152.62"
     id="path6545"
     style="fill:none;stroke:#000000;stroke-width:1;stroke-miterlimit:4;stroke-dasharray:none;stroke-opacity:1" />
  <path
     d="M 584.89,202.65 L 584.87,203.52 M 584.87,203.52 L 584.81,204.39 M 584.81,204.39 L 584.71,205.26 M 584.71,205.26 L 584.58,206.13 M 584.58,206.13 L 584.4,207 M 584.4,207 L 584.19,207.86 M 584.19,207.86 L 583.94,208.72 M 583.94,208.72 L 583.66,209.58 M 583.66,209.58 L 583.33,210.43 M 583.33,210.43 L 582.97,211.28 M 582.97,211.28 L 582.57,212.12 M 582.57,212.12 L 582.13,212.95 M 582.13,212.95 L 581.65,213.78 M 581.65,213.78 L 581.14,214.6 M 581.14,214.6 L 580.6,215.41 M 580.6,215.41 L 580.01,216.22 M 580.01,216.22 L 579.4,217.01 M 579.4,217.01 L 578.74,217.8 M 578.74,217.8 L 578.06,218.58 M 578.06,218.58 L 577.33,219.34 M 577.33,219.34 L 576.58,220.1 M 576.58,220.1 L 575.79,220.84 M 575.79,220.84 L 574.97,221.58 M 574.97,221.58 L 574.11,222.3 M 574.11,222.3 L 573.23,223 M 573.23,223 L 572.31,223.7 M 572.31,223.7 L 571.37,224.38 M 571.37,224.38 L 570.39,225.04 M 570.39,225.04 L 569.38,225.69 M 569.38,225.69 L 568.35,226.33 M 568.35,226.33 L 567.29,226.95 M 567.29,226.95 L 566.2,227.56 M 566.2,227.56 L 565.09,228.14 M 565.09,228.14 L 563.94,228.72 M 563.94,228.72 L 562.78,229.27 M 562.78,229.27 L 561.59,229.81 M 561.59,229.81 L 560.38,230.33 M 560.38,230.33 L 559.14,230.83 M 559.14,230.83 L 557.88,231.31 M 557.88,231.31 L 556.6,231.78 M 556.6,231.78 L 555.3,232.22"
     id="path6549"
     style="fill:none;stroke:#000000;stroke-width:1;stroke-miterlimit:4;stroke-dasharray:none;stroke-opacity:1" />
  <path
     d="M 555.3,232.22 L 553.97,232.66 M 553.97,232.66 L 552.62,233.07 M 552.62,233.07 L 551.24,233.46 M 551.24,233.46 L 549.86,233.83 M 549.86,233.83 L 548.45,234.18 M 548.45,234.18 L 547.03,234.51 M 547.03,234.51 L 545.6,234.81 M 545.6,234.81 L 544.15,235.1 M 544.15,235.1 L 542.69,235.36 M 542.69,235.36 L 541.22,235.61 M 541.22,235.61 L 539.74,235.83 M 539.74,235.83 L 538.25,236.03 M 538.25,236.03 L 536.75,236.2 M 536.75,236.2 L 535.24,236.35 M 535.24,236.35 L 533.73,236.49 M 533.73,236.49 L 532.21,236.59 M 532.21,236.59 L 530.69,236.68 M 530.69,236.68 L 529.16,236.74 M 529.16,236.74 L 527.64,236.78 M 527.64,236.78 L 526.11,236.8 M 526.11,236.8 L 524.58,236.79 M 524.58,236.79 L 523.05,236.76 M 523.05,236.76 L 521.52,236.71 M 521.52,236.71 L 520,236.64 M 520,236.64 L 518.48,236.54 M 518.48,236.54 L 516.96,236.42 M 516.96,236.42 L 515.45,236.28 M 515.45,236.28 L 513.95,236.12 M 513.95,236.12 L 512.45,235.93 M 512.45,235.93 L 510.97,235.72 M 510.97,235.72 L 509.49,235.49 M 509.49,235.49 L 508.03,235.23 M 508.03,235.23 L 506.57,234.96 M 506.57,234.96 L 505.13,234.66 M 505.13,234.66 L 503.71,234.35 M 503.71,234.35 L 502.29,234.01 M 502.29,234.01 L 500.9,233.65 M 500.9,233.65 L 499.52,233.26 M 499.52,233.26 L 498.15,232.86 M 498.15,232.86 L 496.81,232.44 M 496.81,232.44 L 495.49,232 M 495.49,232 L 494.18,231.54 M 494.18,231.54 L 492.9,231.06 M 492.9,231.06 L 491.64,230.56 M 491.64,230.56 L 490.4,230.04 M 490.4,230.04 L 489.18,229.5 M 489.18,229.5 L 487.99,228.95 M 487.99,228.95 L 486.83,228.38 M 486.83,228.38 L 485.69,227.79 M 485.69,227.79 L 484.57,227.18 M 484.57,227.18 L 483.49,226.56 M 483.49,226.56 L 482.43,225.92 M 482.43,225.92 L 481.4,225.27 M 481.4,225.27 L 480.41,224.6 M 480.41,224.6 L 479.44,223.92 M 479.44,223.92 L 478.5,223.22 M 478.5,223.22 L 477.6,222.51 M 477.6,222.51 L 476.72,221.78 M 476.72,221.78 L 475.88,221.04 M 475.88,221.04 L 475.08,220.29 M 475.08,220.29 L 474.3,219.53 M 474.3,219.53 L 473.56,218.76 M 473.56,218.76 L 472.86,217.97 M 472.86,217.97 L 472.19,217.18 M 472.19,217.18 L 471.56,216.38 M 471.56,216.38 L 470.96,215.56 M 470.96,215.56 L 470.4,214.74 M 470.4,214.74 L 469.88,213.91 M 469.88,213.91 L 469.39,213.07 M 469.39,213.07 L 468.94,212.23 M 468.94,212.23 L 468.53,211.38 M 468.53,211.38 L 468.16,210.52 M 468.16,210.52 L 467.83,209.66 M 467.83,209.66 L 467.53,208.79 M 467.53,208.79 L 467.28,207.92 M 467.28,207.92 L 467.06,207.05 M 467.06,207.05 L 466.88,206.17 M 466.88,206.17 L 466.74,205.29 M 466.74,205.29 L 466.65,204.41 M 466.65,204.41 L 466.59,203.53 M 466.59,203.53 L 466.57,202.65"
     id="path6551"
     style="fill:none;stroke:#000000;stroke-width:1;stroke-miterlimit:4;stroke-dasharray:none;stroke-opacity:1" />
  <path
     d="M 504.92618,72.736823 L 504.70154,72.58805 M 504.70154,72.58805 L 504.49732,72.409522 M 504.49732,72.409522 L 504.32373,72.20124 M 504.32373,72.20124 L 504.17056,71.953285 M 504.17056,71.953285 L 504.03782,71.685494 M 504.03782,71.685494 L 503.94592,71.387947 M 503.94592,71.387947 L 503.87444,71.060647 M 503.87444,71.060647 L 503.82339,70.723428 M 503.82339,70.723428 L 503.81318,70.356455 M 503.81318,70.356455 L 503.82339,69.979563 M 503.82339,69.979563 L 503.87444,69.592753 M 503.87444,69.592753 L 503.94592,69.186107 M 503.94592,69.186107 L 504.03782,68.779461 M 504.03782,68.779461 L 504.17056,68.362896 M 504.17056,68.362896 L 504.32373,67.946332 M 504.32373,67.946332 L 504.49732,67.539686 M 504.49732,67.539686 L 504.70154,67.133039 M 504.70154,67.133039 L 504.92618,66.726393 M 504.92618,66.726393 L 505.17124,66.339583 M 505.17124,66.339583 L 505.42652,65.97261 M 505.42652,65.97261 L 505.71243,65.615555 M 505.71243,65.615555 L 505.99834,65.278336 M 505.99834,65.278336 L 506.30467,64.960953 M 506.30467,64.960953 L 506.62121,64.673326 M 506.62121,64.673326 L 506.94796,64.415452 M 506.94796,64.415452 L 507.27471,64.187334 M 507.27471,64.187334 L 507.60146,63.979052 M 507.60146,63.979052 L 507.93843,63.810442 M 507.93843,63.810442 L 508.26518,63.681506 M 508.26518,63.681506 L 508.58172,63.572405 M 508.58172,63.572405 L 508.89826,63.512896 M 508.89826,63.512896 L 509.20459,63.483142 M 509.20459,63.483142 L 509.50071,63.483142 M 509.50071,63.483142 L 509.77641,63.532733 M 509.77641,63.532733 L 510.0419,63.612078 M 510.0419,63.612078 L 510.27675,63.721178"
     id="path6553"
     style="fill:none;stroke:#000000;stroke-width:1.00635445;stroke-miterlimit:4;stroke-dasharray:none;stroke-opacity:1" />
  <path
     d="M 517.15,46.5 L 516.93,46.35 M 516.93,46.35 L 516.74,46.16 M 516.74,46.16 L 516.56,45.95 M 516.56,45.95 L 516.41,45.7 M 516.41,45.7 L 516.29,45.43 M 516.29,45.43 L 516.19,45.13 M 516.19,45.13 L 516.12,44.81 M 516.12,44.81 L 516.08,44.46 M 516.08,44.46 L 516.07,44.09 M 516.07,44.09 L 516.08,43.71 M 516.08,43.71 L 516.12,43.32 M 516.12,43.32 L 516.19,42.91 M 516.19,42.91 L 516.29,42.5 M 516.29,42.5 L 516.41,42.08 M 516.41,42.08 L 516.56,41.66 M 516.56,41.66 L 516.74,41.25 M 516.74,41.25 L 516.94,40.84 M 516.94,40.84 L 517.15,40.44 M 517.15,40.44 L 517.39,40.05 M 517.39,40.05 L 517.65,39.67 M 517.65,39.67 L 517.92,39.31 M 517.92,39.31 L 518.21,38.97 M 518.21,38.97 L 518.51,38.66 M 518.51,38.66 L 518.82,38.37 M 518.82,38.37 L 519.13,38.1 M 519.13,38.1 L 519.46,37.87 M 519.46,37.87 L 519.78,37.67 M 519.78,37.67 L 520.1,37.49 M 520.1,37.49 L 520.42,37.36 M 520.42,37.36 L 520.74,37.26 M 520.74,37.26 L 521.05,37.19 M 521.05,37.19 L 521.35,37.16 M 521.35,37.16 L 521.63,37.17 M 521.63,37.17 L 521.91,37.21 M 521.91,37.21 L 522.16,37.29 M 522.16,37.29 L 522.4,37.4"
     id="path6555"
     style="fill:none;stroke:#000000;stroke-width:1;stroke-miterlimit:4;stroke-dasharray:none;stroke-opacity:1" />
  <path
     d="M 515.68,187.94 L 515.66,188.11 M 515.66,188.11 L 515.61,188.27 M 515.61,188.27 L 515.51,188.43 M 515.51,188.43 L 515.39,188.58 M 515.39,188.58 L 515.22,188.72 M 515.22,188.72 L 515.03,188.84 M 515.03,188.84 L 514.81,188.95 M 514.81,188.95 L 514.57,189.05 M 514.57,189.05 L 514.31,189.12 M 514.31,189.12 L 514.04,189.18 M 514.04,189.18 L 513.75,189.21 M 513.75,189.21 L 513.46,189.22 M 513.46,189.22 L 513.17,189.21 M 513.17,189.21 L 512.89,189.18 M 512.89,189.18 L 512.61,189.12 M 512.61,189.12 L 512.35,189.05 M 512.35,189.05 L 512.11,188.95 M 512.11,188.95 L 511.89,188.84 M 511.89,188.84 L 511.7,188.72 M 511.7,188.72 L 511.54,188.58 M 511.54,188.58 L 511.41,188.43 M 511.41,188.43 L 511.32,188.27 M 511.32,188.27 L 511.26,188.11 M 511.26,188.11 L 511.24,187.94"
     id="path6557"
     style="fill:none;stroke:#000000;stroke-width:1;stroke-miterlimit:4;stroke-dasharray:none;stroke-opacity:1" />
  <path
     d="M 515.68,260.58 L 515.66,260.75 M 515.66,260.75 L 515.61,260.91 M 515.61,260.91 L 515.51,261.07 M 515.51,261.07 L 515.39,261.22 M 515.39,261.22 L 515.22,261.36 M 515.22,261.36 L 515.03,261.49 M 515.03,261.49 L 514.81,261.6 M 514.81,261.6 L 514.57,261.69"
     id="path6559"
     style="fill:none;stroke:#000000;stroke-width:1;stroke-miterlimit:4;stroke-dasharray:none;stroke-opacity:1" />
  <path
     d="M 514.57,261.69 L 514.31,261.76 M 514.31,261.76 L 514.03,261.82 M 514.03,261.82 L 513.75,261.85 M 513.75,261.85 L 513.46,261.86 M 513.46,261.86 L 513.17,261.85 M 513.17,261.85 L 512.89,261.82 M 512.89,261.82 L 512.61,261.76 M 512.61,261.76 L 512.35,261.69 M 512.35,261.69 L 512.11,261.6 M 512.11,261.6 L 511.89,261.49 M 511.89,261.49 L 511.7,261.36 M 511.7,261.36 L 511.54,261.22 M 511.54,261.22 L 511.41,261.07 M 511.41,261.07 L 511.32,260.91 M 511.32,260.91 L 511.26,260.75 M 511.26,260.75 L 511.24,260.58"
     id="path6561"
     style="fill:none;stroke:#000000;stroke-width:1;stroke-miterlimit:4;stroke-dasharray:none;stroke-opacity:1" />
  <path
     d="M 540.21,187.94 L 540.19,188.11 M 540.19,188.11 L 540.14,188.27 M 540.14,188.27 L 540.04,188.43 M 540.04,188.43 L 539.91,188.58 M 539.91,188.58 L 539.75,188.72 M 539.75,188.72 L 539.56,188.84 M 539.56,188.84 L 539.34,188.95 M 539.34,188.95 L 539.1,189.05 M 539.1,189.05 L 538.84,189.12 M 538.84,189.12 L 538.57,189.18 M 538.57,189.18 L 538.28,189.21 M 538.28,189.21 L 537.99,189.22 M 537.99,189.22 L 537.7,189.21 M 537.7,189.21 L 537.42,189.18 M 537.42,189.18 L 537.14,189.12 M 537.14,189.12 L 536.88,189.05 M 536.88,189.05 L 536.64,188.95 M 536.64,188.95 L 536.42,188.84 M 536.42,188.84 L 536.23,188.72 M 536.23,188.72 L 536.07,188.58 M 536.07,188.58 L 535.94,188.43 M 535.94,188.43 L 535.84,188.27 M 535.84,188.27 L 535.79,188.11 M 535.79,188.11 L 535.77,187.94"
     id="path6563"
     style="fill:none;stroke:#000000;stroke-width:1;stroke-miterlimit:4;stroke-dasharray:none;stroke-opacity:1" />
  <path
     d="M 547.35,48.63 L 547.37,48.44 M 547.37,48.44 L 547.43,48.25 M 547.43,48.25 L 547.52,48.07 M 547.52,48.07 L 547.66,47.9 M 547.66,47.9 L 547.82,47.73 M 547.82,47.73 L 548.03,47.58 M 548.03,47.58 L 548.26,47.44 M 548.26,47.44 L 548.51,47.32 M 548.51,47.32 L 548.79,47.22 M 548.79,47.22 L 549.09,47.14 M 549.09,47.14 L 549.41,47.08 M 549.41,47.08 L 549.73,47.04 M 549.73,47.04 L 550.06,47.02 M 550.06,47.02 L 550.39,47.02 M 550.39,47.02 L 550.72,47.05 M 550.72,47.05 L 551.04,47.1 M 551.04,47.1 L 551.35,47.17 M 551.35,47.17 L 551.64,47.26 M 551.64,47.26 L 551.91,47.38 M 551.91,47.38 L 552.16,47.5 M 552.16,47.5 L 552.37,47.65 M 552.37,47.65 L 552.56,47.81 M 552.56,47.81 L 552.71,47.98 M 552.71,47.98 L 552.83,48.16 M 552.83,48.16 L 552.9,48.34 M 552.9,48.34 L 552.94,48.53 M 552.94,48.53 L 552.94,48.72 M 552.94,48.72 L 552.9,48.91 M 552.9,48.91 L 552.83,49.1 M 552.83,49.1 L 552.71,49.28 M 552.71,49.28 L 552.56,49.45 M 552.56,49.45 L 552.37,49.61 M 552.37,49.61 L 552.16,49.75 M 552.16,49.75 L 551.91,49.88 M 551.91,49.88 L 551.64,49.99 M 551.64,49.99 L 551.35,50.08 M 551.35,50.08 L 551.05,50.16 M 551.05,50.16 L 550.73,50.21 M 550.73,50.21 L 550.4,50.24 M 550.4,50.24 L 550.07,50.24 M 550.07,50.24 L 549.74,50.23 M 549.74,50.23 L 549.41,50.19 M 549.41,50.19 L 549.1,50.13 M 549.1,50.13 L 548.8,50.04 M 548.8,50.04 L 548.52,49.94 M 548.52,49.94 L 548.26,49.82 M 548.26,49.82 L 548.03,49.69 M 548.03,49.69 L 547.83,49.53 M 547.83,49.53 L 547.66,49.37 M 547.66,49.37 L 547.52,49.19 M 547.52,49.19 L 547.43,49.01 M 547.43,49.01 L 547.37,48.82 M 547.37,48.82 L 547.35,48.63"
     id="path6569"
     style="fill:none;stroke:#000000;stroke-width:1;stroke-miterlimit:4;stroke-dasharray:none;stroke-opacity:1" />
  <path
     d="M 540.84,75.05 L 540.79,75.08"
     id="path6571"
     style="fill:none;stroke:#000000;stroke-width:1;stroke-miterlimit:4;stroke-dasharray:none;stroke-opacity:1" />
  <path
     d="M 509.48862,160.79862 L 509.00483,160.62954 M 509.00483,160.62954 L 508.53155,160.45052 M 508.53155,160.45052 L 508.08983,160.2516 M 508.08983,160.2516 L 507.65862,160.03279 M 507.65862,160.03279 L 507.26948,159.80404 M 507.26948,159.80404 L 506.90138,159.55539 M 506.90138,159.55539 L 506.56483,159.2968 M 506.56483,159.2968 L 506.25983,159.02827 M 506.25983,159.02827 L 505.98638,158.74978 M 505.98638,158.74978 L 505.74448,158.4713 M 505.74448,158.4713 L 505.54465,158.17293 M 505.54465,158.17293 L 505.37638,157.87455 M 505.37638,157.87455 L 505.23965,157.56623 M 505.23965,157.56623 L 505.145,157.24796 M 505.145,157.24796 L 505.09241,156.93964 M 505.09241,156.93964 L 505.07138,156.62138"
     id="path6585"
     style="fill:none;stroke:#000000;stroke-width:1.02275467;stroke-miterlimit:4;stroke-dasharray:none;stroke-opacity:1" />
  <path
     d="M 540.79,134.46 L 540.77,134.64 M 540.77,134.64 L 540.71,134.83 M 540.71,134.83 L 540.62,135.01 M 540.62,135.01 L 540.49,135.18 M 540.49,135.18 L 540.33,135.34 M 540.33,135.34 L 540.14,135.49 M 540.14,135.49 L 539.91,135.63 M 539.91,135.63 L 539.66,135.75 M 539.66,135.75 L 539.39,135.85 M 539.39,135.85 L 539.1,135.94 M 539.1,135.94 L 538.79,136 M 538.79,136 L 538.48,136.04 M 538.48,136.04 L 538.16,136.07 M 538.16,136.07 L 537.83,136.07 M 537.83,136.07 L 537.51,136.04 M 537.51,136.04 L 537.19,136 M 537.19,136 L 536.88,135.94 M 536.88,135.94 L 536.59,135.85"
     id="path6589"
     style="fill:none;stroke:#000000;stroke-width:1;stroke-miterlimit:4;stroke-dasharray:none;stroke-opacity:1" />
  <path
     d="M 536.59,135.85 L 536.32,135.75 M 536.32,135.75 L 536.07,135.63 M 536.07,135.63 L 535.85,135.49 M 535.85,135.49 L 535.65,135.34 M 535.65,135.34 L 535.49,135.18 M 535.49,135.18 L 535.36,135.01 M 535.36,135.01 L 535.27,134.83 M 535.27,134.83 L 535.21,134.64 M 535.21,134.64 L 535.19,134.46"
     id="path6595"
     style="fill:none;stroke:#000000;stroke-width:1;stroke-miterlimit:4;stroke-dasharray:none;stroke-opacity:1" />
  <path
     d="M 533.79,174.97 L 533.33,174.81 M 533.33,174.81 L 532.88,174.62 M 532.88,174.62 L 532.45,174.42 M 532.45,174.42 L 532.05,174.2 M 532.05,174.2 L 531.68,173.97 M 531.68,173.97 L 531.33,173.73 M 531.33,173.73 L 531.01,173.47 M 531.01,173.47 L 530.72,173.2 M 530.72,173.2 L 530.46,172.92 M 530.46,172.92 L 530.23,172.63 M 530.23,172.63 L 530.04,172.34 M 530.04,172.34 L 529.88,172.03 M 529.88,172.03 L 529.75,171.72 M 529.75,171.72 L 529.66,171.41 M 529.66,171.41 L 529.61,171.09 M 529.61,171.09 L 529.59,170.78"
     id="path6601"
     style="fill:none;stroke:#000000;stroke-width:1;stroke-miterlimit:4;stroke-dasharray:none;stroke-opacity:1" />
  <path
     d="M 546.39,170.78 L 546.37,171.1 M 546.37,171.1 L 546.31,171.43 M 546.31,171.43 L 546.22,171.75 M 546.22,171.75 L 546.08,172.07 M 546.08,172.07 L 545.92,172.38 M 545.92,172.38 L 545.71,172.69 M 545.71,172.69 L 545.47,172.98 M 545.47,172.98 L 545.19,173.27 M 545.19,173.27 L 544.88,173.55 M 544.88,173.55 L 544.55,173.81 M 544.55,173.81 L 544.18,174.06 M 544.18,174.06 L 543.78,174.29 M 543.78,174.29 L 543.35,174.51 M 543.35,174.51 L 542.91,174.71 M 542.91,174.71 L 542.43,174.89 M 542.43,174.89 L 541.94,175.05 M 541.94,175.05 L 541.43,175.2 M 541.43,175.2 L 540.91,175.32 M 540.91,175.32 L 540.37,175.42 M 540.37,175.42 L 539.82,175.51 M 539.82,175.51 L 539.26,175.57 M 539.26,175.57 L 538.7,175.61 M 538.7,175.61 L 538.13,175.62 M 538.13,175.62 L 537.57,175.62 M 537.57,175.62 L 537,175.59 M 537,175.59 L 536.44,175.54 M 536.44,175.54 L 535.89,175.47 M 535.89,175.47 L 535.34,175.38 M 535.34,175.38 L 534.81,175.26 M 534.81,175.26 L 534.29,175.13 M 534.29,175.13 L 533.79,174.97"
     id="path6603"
     style="fill:none;stroke:#000000;stroke-width:1;stroke-miterlimit:4;stroke-dasharray:none;stroke-opacity:1" />
  <path
     d="M 510.95269,161.46746 L 510.64818,161.39374 M 510.64818,161.39374 L 510.34364,161.30773 M 510.34364,161.30773 L 510.04521,161.19715 M 510.04521,161.19715 L 509.75285,161.062 M 509.75285,161.062 L 509.47269,160.91456 M 509.47269,160.91456 L 509.19254,160.74254"
     id="path6607"
     style="fill:none;stroke:#000000;stroke-width:0.86506838;stroke-miterlimit:4;stroke-dasharray:none;stroke-opacity:1" />
  <path
     d="M 521.88225,156.58775 L 521.86416,156.92082 M 521.86416,156.92082 L 521.81893,157.24379 M 521.81893,157.24379 L 521.72847,157.56676 M 521.72847,157.56676 L 521.61087,157.88974 M 521.61087,157.88974 L 521.45709,158.20262 M 521.45709,158.20262 L 521.27617,158.51549 M 521.27617,158.51549 L 521.05907,158.80819 M 521.05907,158.80819 L 520.80579,159.10088 M 520.80579,159.10088 L 520.53441,159.37339 M 520.53441,159.37339 L 520.22685,159.63581 M 520.22685,159.63581 L 519.89215,159.88813 M 519.89215,159.88813 L 519.53936,160.12026 M 519.53936,160.12026 L 519.15039,160.34231 M 519.15039,160.34231 L 518.75237,160.54417 M 518.75237,160.54417 L 518.32721,160.72584 M 518.32721,160.72584 L 517.88396,160.89742 M 517.88396,160.89742 L 517.43167,161.03872 M 517.43167,161.03872 L 516.95223,161.16992 M 516.95223,161.16992 L 516.4728,161.27085 M 516.4728,161.27085 L 515.97528,161.36169 M 515.97528,161.36169 L 515.47775,161.42225"
     id="path6609"
     style="fill:none;stroke:#000000;stroke-width:0.95550621;stroke-miterlimit:4;stroke-dasharray:none;stroke-opacity:1" />
  <path
     sodipodi:type="arc"
     style="fill:none;fill-opacity:1;stroke:#000000;stroke-width:1;stroke-linecap:square;stroke-linejoin:bevel;stroke-miterlimit:4;stroke-dasharray:none;stroke-opacity:1"
     id="path8473"
     sodipodi:cx="533.12866"
     sodipodi:cy="213.51671"
     sodipodi:rx="66.885956"
     sodipodi:ry="33.303051"
     d="M 556.91081,182.38993 A 66.885956,33.303051 0 1 1 509.15612,182.42616"
     transform="matrix(0.8831893,0,0,1.0304016,54.740138,-37.949911)"
     sodipodi:start="5.075905"
     sodipodi:end="10.629011"
     sodipodi:open="true" />
  <path
     sodipodi:type="arc"
     style="fill:none;fill-opacity:1;stroke:#000000;stroke-width:1;stroke-linecap:square;stroke-linejoin:bevel;stroke-miterlimit:4;stroke-dasharray:none;stroke-opacity:1"
     id="path9494"
     sodipodi:cx="694.88635"
     sodipodi:cy="101.29382"
     sodipodi:rx="7.6839924"
     sodipodi:ry="4.4777212"
     d="M 697.51842,97.086988 A 7.6839924,4.4777212 0 1 1 692.05308,97.131606"
     transform="matrix(1.0945759,0,0,0.991083,-247.12831,20.527133)"
     sodipodi:start="5.0620072"
     sodipodi:end="10.617939"
     sodipodi:open="true" />
  <path
     sodipodi:type="arc"
     style="fill:none;fill-opacity:1;stroke:#000000;stroke-width:1;stroke-linecap:square;stroke-linejoin:bevel;stroke-miterlimit:4;stroke-dasharray:none;stroke-opacity:1"
     id="path13470"
     sodipodi:cx="533.12866"
     sodipodi:cy="213.51671"
     sodipodi:rx="66.885956"
     sodipodi:ry="33.303051"
     d="M 528.40054,180.29697 A 66.885956,33.303051 0 0 1 535.70278,180.23833"
     transform="matrix(0.8831893,0,0,1.0304016,55.531694,-38.282958)"
     sodipodi:start="4.6416407"
     sodipodi:end="4.7508837"
     sodipodi:open="true" />
  <path
     sodipodi:type="arc"
     style="fill:none;fill-opacity:1;stroke:#000000;stroke-width:1;stroke-linecap:square;stroke-linejoin:bevel;stroke-miterlimit:4;stroke-dasharray:none;stroke-opacity:1"
     id="path13474"
     sodipodi:cx="513.32452"
     sodipodi:cy="121.40501"
     sodipodi:rx="2.9683378"
     sodipodi:ry="1.2862797"
     d="M 516.28997,121.34825 A 2.9683378,1.2862797 0 1 1 510.37288,121.26878"
     sodipodi:start="6.2390472"
     sodipodi:end="9.5308824"
     sodipodi:open="true"
     transform="matrix(0.9378052,0,0,1.0106103,31.926141,-2.4758876)" />
  <path
     style="fill:none;fill-rule:evenodd;stroke:#000000;stroke-width:1px;stroke-linecap:butt;stroke-linejoin:miter;stroke-opacity:1"
     d="M 510.55409,63.660296 L 543.88079,83.338119"
     id="path14453"
     sodipodi:nodetypes="cc" />
  <path
     sodipodi:type="arc"
     style="fill:none;fill-opacity:1;stroke:#000000;stroke-width:1;stroke-linecap:square;stroke-linejoin:bevel;stroke-miterlimit:4;stroke-dasharray:none;stroke-opacity:1"
     id="path17364"
     sodipodi:cx="694.88635"
     sodipodi:cy="101.29382"
     sodipodi:rx="7.6839924"
     sodipodi:ry="4.4777212"
     d="M 697.51842,97.086988 A 7.6839924,4.4777212 0 1 1 692.05308,97.131606"
     transform="matrix(1.0945759,0,0,0.991083,-222.57968,35.540848)"
     sodipodi:start="5.0620072"
     sodipodi:end="10.617939"
     sodipodi:open="true" />
  <path
     sodipodi:type="arc"
     style="fill:none;fill-opacity:1;stroke:#000000;stroke-width:1;stroke-linecap:square;stroke-linejoin:bevel;stroke-miterlimit:4;stroke-dasharray:none;stroke-opacity:1"
     id="path17366"
     sodipodi:cx="694.88635"
     sodipodi:cy="101.29382"
     sodipodi:rx="7.6839924"
     sodipodi:ry="4.4777212"
     d="M 692.04209,105.45349 A 7.6839924,4.4777212 0 0 1 692.05308,97.131606"
     transform="matrix(1.0945759,0,0,0.991083,-222.57969,20.078717)"
     sodipodi:start="1.9499717"
     sodipodi:end="4.3347537"
     sodipodi:open="true" />
  <path
     sodipodi:type="arc"
     style="fill:none;fill-opacity:1;stroke:#000000;stroke-width:1;stroke-linecap:square;stroke-linejoin:bevel;stroke-miterlimit:4;stroke-dasharray:none;stroke-opacity:1"
     id="path17368"
     sodipodi:cx="694.88635"
     sodipodi:cy="101.29382"
     sodipodi:rx="7.6839924"
     sodipodi:ry="4.4777212"
     d="M 692.04209,105.45349 A 7.6839924,4.4777212 0 0 1 692.05308,97.131606"
     transform="matrix(-1.0945759,0,0,0.991083,1298.6124,20.214666)"
     sodipodi:start="1.9499717"
     sodipodi:end="4.3347537"
     sodipodi:open="true" />
  <path
     style="fill:none;fill-rule:evenodd;stroke:#000000;stroke-width:1px;stroke-linecap:butt;stroke-linejoin:miter;stroke-opacity:1"
     d="M 525.59367,36.906331 L 530.83774,39.87467"
     id="path17370"
     sodipodi:nodetypes="cc" />
  <text
     xml:space="preserve"
     style="font-size:16px;font-style:normal;font-weight:normal;fill:#000000;fill-opacity:1;stroke:none;stroke-width:1px;stroke-linecap:butt;stroke-linejoin:miter;stroke-opacity:1;font-family:Bitstream Vera Sans"
     x="587.39636"
     y="26.427801"
     id="text18343"><tspan
       sodipodi:role="line"
       id="tspan18345"
       x="587.39636"
       y="26.427801">Enriched Ca43 oven</tspan></text>
  <text
     xml:space="preserve"
     style="font-size:16px;font-style:normal;font-weight:normal;fill:#000000;fill-opacity:1;stroke:none;stroke-width:1px;stroke-linecap:butt;stroke-linejoin:miter;stroke-opacity:1;font-family:Bitstream Vera Sans"
     x="283.39145"
     y="33.753529"
     id="text20519"><tspan
       sodipodi:role="line"
       id="tspan20521"
       x="283.39145"
       y="33.753529">Natural abundance oven</tspan></text>
  <text
     xml:space="preserve"
     style="font-size:16px;font-style:normal;font-weight:normal;fill:#000000;fill-opacity:1;stroke:none;stroke-width:1px;stroke-linecap:butt;stroke-linejoin:miter;stroke-opacity:1;font-family:Bitstream Vera Sans"
     x="294.45911"
     y="173.35092"
     id="text20523"><tspan
       sodipodi:role="line"
       id="tspan20525"
       x="294.45911"
       y="173.35092">Barrel connector</tspan></text>
  <path
     style="fill:none;fill-rule:evenodd;stroke:#000000;stroke-width:1.5;stroke-linecap:butt;stroke-linejoin:miter;marker-start:url(#TriangleInM);marker-end:none;stroke-miterlimit:4;stroke-dasharray:none;stroke-opacity:1"
     d="M 493.9314,137.33509 L 436.14775,165.83114"
     id="path20531"
     sodipodi:nodetypes="cc" />
  <path
     style="fill:none;fill-rule:evenodd;stroke:#000000;stroke-width:1.5;stroke-linecap:butt;stroke-linejoin:miter;marker-start:url(#TriangleInM);marker-end:none;stroke-miterlimit:4;stroke-dasharray:none;stroke-opacity:1"
     d="M 500.87776,60.142414 L 481.88039,39.561946"
     id="path21508"
     sodipodi:nodetypes="cc" />
  <path
     style="fill:none;fill-rule:evenodd;stroke:#000000;stroke-width:1.5;stroke-linecap:butt;stroke-linejoin:miter;marker-start:url(#TriangleInM);marker-end:none;stroke-miterlimit:4;stroke-dasharray:none;stroke-opacity:1"
     d="M 564.2023,51.435291 L 585.57433,31.646383"
     id="path21510"
     sodipodi:nodetypes="cc" />
</svg>
